<?xml version="1.0" encoding="UTF-8" standalone="no"?> <svg width="64" height="64" viewBox="0 0 64 64" fill="none" xmlns="http://www.w3.org/2000/svg">
<path d="M10.8421 9.88278C10.2246 7.76168 8.00459 6.54272 5.88349 7.16016C3.76239 7.7776 2.54343 9.99763 3.16088 12.1187L11.5457 40.9232C12.1631 43.0443 14.3832 44.2632 16.5043 43.6458C18.6254 43.0283 19.8443 40.8083 19.2269 38.6872L10.8421 9.88278Z" fill="#57B7EB"/>
<path d="M16.5 43.65C15.4816 43.9436 14.3883 43.821 13.4602 43.3092C12.532 42.7973 11.845 41.938 11.55 40.92L3.16 12.12C2.89276 11.2158 2.95515 10.246 3.33606 9.38348C3.71697 8.52093 4.39167 7.82159 5.24 7.41L6.55 11.92C6.84504 12.938 7.53205 13.7973 8.46015 14.3092C9.38826 14.821 10.4816 14.9436 11.5 14.65C11.7259 14.5832 11.9465 14.4997 12.16 14.4L19.23 38.69C19.525 39.7097 19.4032 40.8049 18.8913 41.7349C18.3794 42.6649 17.5194 43.3537 16.5 43.65V43.65Z" fill="#4891D3"/>
<path d="M37 6H17V42H37V6Z" fill="#F8664F"/>
<path d="M37 9V42H17V6H21C21 6.79565 21.3161 7.55871 21.8787 8.12132C22.4413 8.68393 23.2044 9 24 9H37Z" fill="#CC5144"/>
<path d="M46 11H27V42H46V11Z" fill="#F9E109"/>
<path d="M46 11V42H27V15H38.88C39.7716 14.9983 40.6372 14.6994 41.3399 14.1507C42.0426 13.6019 42.5423 12.8346 42.76 11.97L43 11H46Z" fill="#FCBC04"/>
<path d="M60.88 4.31699C60.7906 4.0697 60.6534 3.84246 60.4761 3.64828C60.2988 3.45409 60.085 3.29677 59.8468 3.18531C59.6087 3.07385 59.3509 3.01045 59.0882 2.99872C58.8255 2.987 58.5631 3.02719 58.316 3.11699L47.316 7.11699C46.9607 7.24632 46.6493 7.47373 46.4179 7.77285C46.1866 8.07198 46.0448 8.43055 46.009 8.80699L45.229 17H5C4.69489 17.0002 4.39388 17.0703 4.12001 17.2047C3.84613 17.3392 3.60665 17.5346 3.4199 17.7758C3.23315 18.0171 3.10408 18.2979 3.04256 18.5968C2.98105 18.8956 2.98873 19.2046 3.065 19.5L9.065 42.5C9.17579 42.9291 9.42593 43.3092 9.77616 43.5807C10.1264 43.8522 10.5569 43.9997 11 44H42.658L42.182 49H14C13.4696 49 12.9609 49.2107 12.5858 49.5858C12.2107 49.9609 12 50.4696 12 51C12 51.5304 12.2107 52.0391 12.5858 52.4142C12.9609 52.7893 13.4696 53 14 53H44C44.4976 53 44.9772 52.8146 45.3454 52.4799C45.7135 52.1452 45.9437 51.6853 45.991 51.19L49.871 10.448L59.684 6.87999C60.1825 6.6987 60.5885 6.32683 60.8128 5.84618C61.0371 5.36553 61.0613 4.81547 60.88 4.31699ZM29 21H36.527L33.176 40H29V21ZM25 40H20.885L17.535 21H25V40ZM7.589 21H13.473L16.824 40H12.545L7.589 21ZM43.039 40H37.239L40.589 21H44.849L43.039 40Z" fill="#D0D8DA"/>
<path d="M60.88 4.31998C60.6995 3.82151 60.3284 3.41511 59.8484 3.19009C59.3684 2.96507 58.8186 2.93986 58.32 3.11998L47.32 7.11998C46.9631 7.24717 46.65 7.47391 46.4179 7.7734C46.1857 8.07289 46.0442 8.4326 46.01 8.80998L45.23 17H43C42.9984 17.5299 42.7872 18.0377 42.4125 18.4124C42.0377 18.7872 41.53 18.9984 41 19H10C9.47006 18.9984 8.96227 18.7872 8.58754 18.4124C8.21281 18.0377 8.00158 17.5299 8 17H5C4.69457 17.0007 4.39336 17.0714 4.11947 17.2066C3.84559 17.3418 3.60632 17.538 3.42 17.78C3.23309 18.0224 3.10359 18.304 3.04124 18.6036C2.97888 18.9033 2.9853 19.2132 3.06 19.51L9.06 42.5C9.171 42.9299 9.42189 43.3106 9.77314 43.5822C10.1244 43.8538 10.556 44.0008 11 44H42.66L42.18 49H39C38.9984 49.5299 38.7872 50.0377 38.4125 50.4124C38.0377 50.7872 37.53 50.9984 37 51H19C18.4701 50.9984 17.9623 50.7872 17.5875 50.4124C17.2128 50.0377 17.0016 49.5299 17 49H14C13.4696 49 12.9609 49.2107 12.5858 49.5858C12.2107 49.9608 12 50.4696 12 51C12 51.5304 12.2107 52.0391 12.5858 52.4142C12.9609 52.7893 13.4696 53 14 53H44C44.4974 52.9997 44.9768 52.8142 45.3448 52.4795C45.7127 52.1449 45.9428 51.6851 45.99 51.19L46.31 47.82C45.6802 47.5919 45.1444 47.1602 44.7876 46.5932C44.4308 46.0263 44.2733 45.3565 44.34 44.69L47.81 10.88C47.8652 10.3162 48.0798 9.77987 48.4287 9.33361C48.7775 8.88735 49.2463 8.54964 49.78 8.35998L60.9 4.38998C60.898 4.36556 60.8912 4.34176 60.88 4.31998V4.31998ZM12.55 40L12.03 38H11.51C11.0756 38.0007 10.653 37.8594 10.3064 37.5976C9.95974 37.3358 9.70818 36.968 9.59 36.55L6.73 26.55C6.65143 26.2746 6.63291 25.9856 6.6757 25.7024C6.71849 25.4192 6.82159 25.1486 6.97803 24.9087C7.13446 24.6688 7.34059 24.4653 7.58246 24.312C7.82433 24.1587 8.09631 24.0591 8.38 24.02L7.59 21H13.47L16.82 40H12.55ZM25 40H20.89L20.54 37.99C20.0961 37.9764 19.6697 37.8144 19.3288 37.5297C18.988 37.2451 18.7525 36.8543 18.66 36.42L16.52 26.42C16.4634 26.1611 16.4589 25.8935 16.507 25.6329C16.5551 25.3723 16.6547 25.1239 16.8 24.9022C16.9452 24.6806 17.1333 24.4902 17.3531 24.3421C17.5729 24.194 17.82 24.0913 18.08 24.04L17.54 21H25V40ZM29 40V38C28.4701 37.9984 27.9623 37.7872 27.5875 37.4124C27.2128 37.0377 27.0016 36.5299 27 36V26C27.0016 25.47 27.2128 24.9622 27.5875 24.5875C27.9623 24.2128 28.4701 24.0016 29 24V21H36.53L33.18 40H29ZM43.04 40H37.24L37.61 37.87C37.1823 37.7129 36.8217 37.4135 36.5886 37.0221C36.3555 36.6306 36.2642 36.1708 36.33 35.72L37.75 25.72C37.8194 25.2437 38.0575 24.8082 38.4208 24.4925C38.7842 24.1769 39.2487 24.0021 39.73 24H40.06L40.59 21H44.85L43.04 40Z" fill="#93999A"/>
<path d="M19 61C21.2091 61 23 59.2091 23 57C23 54.7909 21.2091 53 19 53C16.7909 53 15 54.7909 15 57C15 59.2091 16.7909 61 19 61Z" fill="#D0D8DA"/>
<path d="M38 61C40.2091 61 42 59.2091 42 57C42 54.7909 40.2091 53 38 53C35.7909 53 34 54.7909 34 57C34 59.2091 35.7909 61 38 61Z" fill="#D0D8DA"/>
<path d="M38 59C39.1046 59 40 58.1046 40 57C40 55.8954 39.1046 55 38 55C36.8954 55 36 55.8954 36 57C36 58.1046 36.8954 59 38 59Z" fill="#656B76"/>
<path d="M19 59C20.1046 59 21 58.1046 21 57C21 55.8954 20.1046 55 19 55C17.8954 55 17 55.8954 17 57C17 58.1046 17.8954 59 19 59Z" fill="#656B76"/>
<path d="M47.63 33.981C47.3661 33.9559 47.1031 34.0366 46.8987 34.2054C46.6943 34.3742 46.5653 34.6171 46.54 34.881L45 51.1C44.9751 51.3475 44.8589 51.5769 44.674 51.7433C44.4891 51.9097 44.2488 52.0012 44 52H14C13.7348 52 13.4804 51.8946 13.2929 51.7071C13.1054 51.5196 13 51.2652 13 51C13 50.7348 13.1054 50.4804 13.2929 50.2929C13.4804 50.1053 13.7348 50 14 50H35C35.2652 50 35.5196 49.8946 35.7071 49.7071C35.8946 49.5196 36 49.2652 36 49C36 48.7348 35.8946 48.4804 35.7071 48.2929C35.5196 48.1053 35.2652 48 35 48H14C13.2044 48 12.4413 48.3161 11.8787 48.8787C11.3161 49.4413 11 50.2043 11 51C11 51.7956 11.3161 52.5587 11.8787 53.1213C12.4413 53.6839 13.2044 54 14 54H15.026C14.3642 54.8604 14.0037 55.9145 14 57C14 58.3261 14.5268 59.5978 15.4645 60.5355C16.4021 61.4732 17.6739 62 19 62C20.3261 62 21.5979 61.4732 22.5355 60.5355C23.4732 59.5978 24 58.3261 24 57C23.9963 55.9145 23.6358 54.8604 22.974 54H34.026C33.3642 54.8604 33.0037 55.9145 33 57C33 58.3261 33.5268 59.5978 34.4645 60.5355C35.4021 61.4732 36.6739 62 38 62C39.3261 62 40.5979 61.4732 41.5355 60.5355C42.4732 59.5978 43 58.3261 43 57C42.9963 55.9145 42.6358 54.8604 41.974 54H44C44.7473 54.003 45.4686 53.7258 46.0214 53.2229C46.5742 52.7201 46.9184 52.0282 46.986 51.284L48.53 35.072C48.5425 34.9413 48.5292 34.8093 48.4908 34.6837C48.4523 34.5582 48.3896 34.4414 48.306 34.3401C48.2224 34.2388 48.1197 34.1549 48.0037 34.0933C47.8877 34.0317 47.7607 33.9935 47.63 33.981ZM22 57C22 57.5933 21.8241 58.1733 21.4944 58.6667C21.1648 59.16 20.6962 59.5446 20.1481 59.7716C19.5999 59.9987 18.9967 60.0581 18.4147 59.9423C17.8328 59.8266 17.2982 59.5409 16.8787 59.1213C16.4591 58.7017 16.1734 58.1672 16.0576 57.5853C15.9419 57.0033 16.0013 56.4001 16.2284 55.8519C16.4554 55.3038 16.8399 54.8352 17.3333 54.5056C17.8266 54.1759 18.4067 54 19 54C19.7956 54 20.5587 54.3161 21.1213 54.8787C21.6839 55.4413 22 56.2043 22 57ZM41 57C41 57.5933 40.8241 58.1733 40.4944 58.6667C40.1648 59.16 39.6962 59.5446 39.148 59.7716C38.5999 59.9987 37.9967 60.0581 37.4147 59.9423C36.8328 59.8266 36.2982 59.5409 35.8787 59.1213C35.4591 58.7017 35.1734 58.1672 35.0576 57.5853C34.9419 57.0033 35.0013 56.4001 35.2284 55.8519C35.4554 55.3038 35.8399 54.8352 36.3333 54.5056C36.8266 54.1759 37.4067 54 38 54C38.7956 54 39.5587 54.3161 40.1213 54.8787C40.6839 55.4413 41 56.2043 41 57Z" fill="#464A51"/>
<path d="M41.559 45L41.272 48H39C38.7348 48 38.4804 48.1054 38.2929 48.2929C38.1054 48.4804 38 48.7348 38 49C38 49.2652 38.1054 49.5196 38.2929 49.7071C38.4804 49.8946 38.7348 50 39 50H42.182C42.4307 49.9999 42.6704 49.9071 42.8544 49.7398C43.0384 49.5724 43.1534 49.3426 43.177 49.095L43.653 44.095C43.6662 43.9563 43.6504 43.8164 43.6064 43.6843C43.5624 43.5521 43.4913 43.4306 43.3976 43.3275C43.3039 43.2244 43.1898 43.142 43.0624 43.0856C42.935 43.0292 42.7973 43.0001 42.658 43H11C10.7788 42.9998 10.5639 42.9263 10.3889 42.791C10.2139 42.6556 10.0887 42.4661 10.033 42.252L4.033 19.252C3.99451 19.1042 3.99039 18.9495 4.02095 18.7999C4.05151 18.6503 4.11595 18.5096 4.20931 18.3887C4.30266 18.2679 4.42247 18.17 4.55953 18.1026C4.6966 18.0352 4.84727 18.0001 5 18H34C34.2652 18 34.5196 17.8946 34.7071 17.7071C34.8946 17.5196 35 17.2652 35 17C35 16.7348 34.8946 16.4804 34.7071 16.2929C34.5196 16.1054 34.2652 16 34 16H28V12H41.8C42.0652 12 42.3196 11.8946 42.5071 11.7071C42.6946 11.5196 42.8 11.2652 42.8 11C42.8 10.7348 42.6946 10.4804 42.5071 10.2929C42.3196 10.1054 42.0652 10 41.8 10H38V6C38 5.73478 37.8946 5.48043 37.7071 5.29289C37.5196 5.10536 37.2652 5 37 5H17C16.7348 5 16.4804 5.10536 16.2929 5.29289C16.1054 5.48043 16 5.73478 16 6V16H5.331L4.121 11.839C3.89862 11.075 3.98882 10.254 4.37177 9.55659C4.75472 8.85914 5.39905 8.34238 6.163 8.12C6.92696 7.89762 7.74797 7.98782 8.44541 8.37077C9.14286 8.75372 9.65962 9.39804 9.882 10.162L10.789 13.279C10.8678 13.528 11.0408 13.7362 11.2711 13.8593C11.5014 13.9823 11.7707 14.0104 12.0215 13.9376C12.2722 13.8647 12.4845 13.6966 12.613 13.4693C12.7415 13.242 12.7759 12.9734 12.709 12.721L11.8 9.6C11.4287 8.32696 10.5669 7.25356 9.40417 6.61594C8.24144 5.97831 6.87304 5.8287 5.6 6.2C4.32696 6.5713 3.25356 7.43311 2.61594 8.59584C1.97832 9.75856 1.8287 11.127 2.2 12.4L3.391 16.494C3.09888 16.673 2.83976 16.901 2.625 17.168C2.34698 17.5315 2.15525 17.9535 2.06429 18.402C1.97334 18.8506 1.98555 19.3139 2.1 19.757L8.1 42.757C8.26739 43.3989 8.6428 43.9672 9.16751 44.373C9.69222 44.7789 10.3367 44.9994 11 45H41.559ZM18 7H36V10H27C26.7348 10 26.4804 10.1054 26.2929 10.2929C26.1054 10.4804 26 10.7348 26 11V16H18V7Z" fill="#464A51"/>
<path d="M61.819 3.97398C61.5455 3.22759 60.9876 2.61991 60.2672 2.28388C59.5468 1.94786 58.7226 1.91086 57.975 2.18098L46.975 6.18098C46.4427 6.37613 45.9762 6.71756 45.6293 7.16601C45.2824 7.61446 45.0691 8.15171 45.014 8.71598L44.319 16H38C37.7348 16 37.4804 16.1053 37.2929 16.2929C37.1054 16.4804 37 16.7348 37 17C37 17.2652 37.1054 17.5196 37.2929 17.7071C37.4804 17.8946 37.7348 18 38 18H45.229C45.4777 17.9999 45.7174 17.9071 45.9014 17.7398C46.0854 17.5724 46.2004 17.3425 46.224 17.095L47 8.89998C47.0181 8.71188 47.0892 8.53277 47.2049 8.38339C47.3207 8.23402 47.4764 8.1205 47.654 8.05598L58.654 4.05599C58.7783 4.00618 58.9114 3.98187 59.0453 3.98449C59.1793 3.98711 59.3113 4.0166 59.4336 4.07123C59.5559 4.12585 59.666 4.20449 59.7573 4.30247C59.8486 4.40046 59.9194 4.51579 59.9653 4.64163C60.0112 4.76747 60.0313 4.90124 60.0245 5.03502C60.0177 5.16879 59.9841 5.29984 59.9257 5.42038C59.8673 5.54092 59.7853 5.6485 59.6845 5.73672C59.5837 5.82495 59.4662 5.89203 59.339 5.93398L49.529 9.50799C49.3514 9.57272 49.1958 9.68646 49.0803 9.83602C48.9647 9.98558 48.8939 10.1648 48.876 10.353L46.92 30.9C46.9074 31.0307 46.9208 31.1626 46.9592 31.2882C46.9977 31.4138 47.0604 31.5306 47.144 31.6319C47.2276 31.7332 47.3303 31.8171 47.4463 31.8787C47.5623 31.9403 47.6893 31.9785 47.82 31.991C47.853 31.991 47.885 31.991 47.92 31.991C48.1685 31.9906 48.408 31.8977 48.5918 31.7304C48.7755 31.5631 48.8904 31.3334 48.914 31.086L50.814 11.17L60.032 7.81798C60.7783 7.54465 61.3856 6.98635 61.7207 6.26564C62.0557 5.54494 62.0911 4.72074 61.819 3.97398V3.97398Z" fill="#464A51"/>
<path d="M36.526 20H29C28.7348 20 28.4804 20.1054 28.2929 20.2929C28.1054 20.4804 28 20.7348 28 21V40C28 40.2652 28.1054 40.5196 28.2929 40.7071C28.4804 40.8946 28.7348 41 29 41H33.177C33.4119 40.9998 33.6393 40.917 33.8192 40.7659C33.9991 40.6149 34.1201 40.4053 34.161 40.174L37.511 21.174C37.5364 21.0302 37.53 20.8825 37.4922 20.7414C37.4545 20.6003 37.3862 20.4692 37.2923 20.3573C37.1984 20.2453 37.0812 20.1554 36.9488 20.0936C36.8164 20.0319 36.6721 20 36.526 20ZM32.337 39H30V22H35.335L32.337 39Z" fill="#464A51"/>
<path d="M25 29C25.2652 29 25.5196 28.8946 25.7071 28.7071C25.8946 28.5196 26 28.2652 26 28V21C26 20.7348 25.8946 20.4804 25.7071 20.2929C25.5196 20.1054 25.2652 20 25 20H17.535C17.3889 20 17.2446 20.0319 17.1122 20.0936C16.9798 20.1554 16.8626 20.2453 16.7687 20.3573C16.6748 20.4692 16.6065 20.6003 16.5688 20.7414C16.531 20.8825 16.5246 21.0302 16.55 21.174L19.9 40.174C19.9409 40.4055 20.0621 40.6152 20.2422 40.7662C20.4223 40.9173 20.6499 41.0001 20.885 41H25C25.2652 41 25.5196 40.8946 25.7071 40.7071C25.8946 40.5196 26 40.2652 26 40V32C26 31.7348 25.8946 31.4804 25.7071 31.2929C25.5196 31.1054 25.2652 31 25 31C24.7348 31 24.4804 31.1054 24.2929 31.2929C24.1054 31.4804 24 31.7348 24 32V39H21.724L18.724 22H24V28C24 28.2652 24.1054 28.5196 24.2929 28.7071C24.4804 28.8946 24.7348 29 25 29Z" fill="#464A51"/>
<path d="M13.474 20H7.589C7.43619 20 7.2854 20.0349 7.14821 20.1023C7.01102 20.1696 6.89108 20.2674 6.79761 20.3883C6.70414 20.5092 6.63962 20.6499 6.609 20.7997C6.57839 20.9494 6.58249 21.1041 6.621 21.252L11.578 40.252C11.6337 40.4661 11.7589 40.6556 11.9339 40.791C12.1089 40.9263 12.3238 40.9998 12.545 41H16.824C16.9701 41 17.1144 40.9681 17.2468 40.9063C17.3792 40.8446 17.4964 40.7547 17.5903 40.6427C17.6842 40.5308 17.7525 40.3997 17.7902 40.2586C17.828 40.1175 17.8344 39.9698 17.809 39.826L14.458 20.826C14.4171 20.5947 14.2961 20.3851 14.1162 20.2341C13.9363 20.083 13.7089 20.0002 13.474 20ZM13.318 39L8.883 22H12.635L15.635 39H13.318Z" fill="#464A51"/>
<path d="M37.238 41H43.038C43.2867 40.9999 43.5264 40.9071 43.7104 40.7398C43.8944 40.5725 44.0094 40.3426 44.033 40.095L45.842 21.095C45.8553 20.9559 45.8393 20.8156 45.795 20.6831C45.7507 20.5506 45.6792 20.4288 45.5849 20.3256C45.4907 20.2225 45.3759 20.1402 45.248 20.0841C45.12 20.028 44.9817 19.9994 44.842 20H40.582C40.3471 20.0002 40.1197 20.0831 39.9398 20.2341C39.7599 20.3851 39.6389 20.5947 39.598 20.826L36.248 39.826C36.2225 39.9703 36.229 40.1184 36.2671 40.2598C36.3051 40.4013 36.3738 40.5327 36.4683 40.6447C36.5627 40.7567 36.6806 40.8466 36.8136 40.908C36.9466 40.9694 37.0915 41.0008 37.238 41ZM41.427 22H43.748L42.13 39H38.43L41.427 22Z" fill="#464A51"/>
<path d="M19 58C19.5523 58 20 57.5523 20 57C20 56.4477 19.5523 56 19 56C18.4477 56 18 56.4477 18 57C18 57.5523 18.4477 58 19 58Z" fill="#464A51"/>
<path d="M38 58C38.5523 58 39 57.5523 39 57C39 56.4477 38.5523 56 38 56C37.4477 56 37 56.4477 37 57C37 57.5523 37.4477 58 38 58Z" fill="#464A51"/>
</svg>
