<?xml version="1.0" encoding="UTF-8"?>
<!DOCTYPE svg PUBLIC "-//W3C//DTD SVG 1.1//EN" "http://www.w3.org/Graphics/SVG/1.1/DTD/svg11.dtd">
<!-- Creator: CorelDRAW -->
<svg xmlns="http://www.w3.org/2000/svg" xml:space="preserve" width="2.66666in" height="2.66666in" version="1.1" style="shape-rendering:geometricPrecision; text-rendering:geometricPrecision; image-rendering:optimizeQuality; fill-rule:evenodd; clip-rule:evenodd"
viewBox="0 0 2667 2667"
 xmlns:xlink="http://www.w3.org/1999/xlink">
 <defs>
  <style type="text/css">
   <![CDATA[
    .fil2 {fill:#333333}
    .fil5 {fill:#99CCCC}
    .fil1 {fill:#B6AC98}
    .fil0 {fill:#F3F0EA}
    .fil4 {fill:#FF3131}
    .fil3 {fill:#FF9E5C}
   ]]>
  </style>
 </defs>
 <rect class="fil0" width="2667" height="2667" rx="500" ry="500"/>
 <g id="Layer_x0020_1">
  <metadata id="CorelCorpID_0Corel-Layer"/>
  <g id="_656058480">
   <path class="fil1" d="M2130 2249l-1527 0c-86,0 -156,-70 -156,-156l0 -1520c0,-86 70,-156 156,-156l1527 0c87,0 156,70 156,156l0 1520c0,86 -69,156 -156,156zm-1463 -1524c-17,-17 -28,-40 -28,-65 0,-25 11,-48 28,-64l-41 0 0 129 41 0zm1399 0l42 0 0 -129 -42 0c17,16 28,39 28,64 0,25 -11,48 -28,65zm-1440 178l0 1168 1482 0 0 -1168 -1482 0zm181 243l136 -169c17,-21 42,-33 69,-33l443 0 1 0 265 0c27,0 53,12 70,33l136 170c3,3 5,6 7,9l1 2 0 1 2 3 2 3 0 1 1 2 1 2 1 3 1 3 0 1 1 2 0 2 0 0 1 3 0 1 1 3 0 2 1 3 0 1c0,3 0,7 0,10l0 737c0,49 -40,89 -89,89l-983 0c-49,0 -89,-40 -89,-89l0 -738c0,-21 7,-41 21,-57zm175 706c-1,-6 -2,-12 -2,-19 0,-17 5,-33 14,-47 -9,-14 -14,-30 -14,-47 0,-18 5,-34 14,-48 -9,-13 -14,-30 -14,-47 0,-49 40,-89 90,-89l119 0c-1,-6 -1,-12 -1,-19l0 -244 -223 0 0 560 17 0zm769 0l18 0 0 -560 -223 0 0 244c0,7 -1,13 -2,19l120 0c49,0 89,40 89,89 0,17 -5,34 -14,47 9,14 14,30 14,48 0,17 -5,33 -14,47 9,14 14,30 14,47 0,7 -1,13 -2,19zm-385 -730l0 196c1,0 1,0 1,0l0 -196 -1 0z"/>
   <path class="fil1" d="M2130 2246l-1527 0c-84,0 -153,-68 -153,-153l0 -1520c0,-84 69,-152 153,-152l1527 0c85,0 153,68 153,152l0 1520c0,85 -68,153 -153,153zm-1454 -1518c-20,-16 -33,-40 -33,-68 0,-27 13,-52 33,-67l-54 0 0 135 54 0zm193 0l15 0c-3,-2 -5,-4 -8,-7 -2,3 -5,5 -7,7zm208 0l15 0c-3,-2 -5,-4 -8,-7 -2,3 -5,5 -7,7zm208 0l13 0c-3,-2 -5,-4 -7,-6 -2,2 -4,4 -6,6zm773 0l53 0 0 -135 -53 0c20,15 33,40 33,67 0,28 -13,52 -33,68zm-760 -135l-13 0c2,1 4,3 6,5 2,-2 4,-4 7,-5zm-206 0l-15 0c2,2 5,4 7,6 3,-2 5,-4 8,-6zm-208 0l-15 0c2,2 5,4 7,6 3,-2 5,-4 8,-6zm-262 307l0 1174 1489 0 0 -1174 -1489 0zm187 249l136 -170c17,-20 41,-32 67,-32l443 0 1 0 265 0c26,0 51,12 67,32l137 170c2,3 4,6 6,9l1 1 1 2 1 2 2 3 0 1 1 3 1 2 1 2 1 3 0 1 1 2 0 2 0 0 1 2 0 2 1 3 0 1 0 4 0 0c1,4 1,7 1,10l0 737c0,47 -39,86 -86,86l-983 0c-47,0 -86,-39 -86,-86l0 -738c0,-20 7,-39 20,-54zm178 706c-2,-7 -3,-14 -3,-22 0,-17 5,-33 14,-47 -9,-14 -14,-30 -14,-47 0,-18 5,-34 14,-48 -9,-13 -14,-30 -14,-47 0,-47 38,-86 86,-86l124 0c-2,-7 -3,-14 -3,-22l0 -247 -230 0 0 566 26 0zm760 0l25 0 0 -566 -230 0 0 247c0,8 0,15 -2,22l124 0c47,0 86,39 86,86 0,17 -6,34 -15,47 9,14 15,30 15,48 0,17 -6,33 -15,47 9,14 15,30 15,47 0,8 -1,15 -3,22zm-380 -297l0 0 0 0 0 0zm-4 -439l0 202c2,0 3,0 5,0 0,0 1,0 1,0 0,0 1,0 2,0l0 -202 -8 0z"/>
   <path class="fil1" d="M2130 2243l-1527 0c-82,0 -149,-67 -149,-150l0 -1520c0,-82 67,-149 149,-149l1527 0c83,0 150,67 150,149l0 1520c0,83 -67,150 -150,150zm-1444 -1512c-24,-14 -40,-41 -40,-71 0,-30 16,-56 40,-71l-67 0 0 142 67 0zm172 0l36 0c-6,-4 -12,-9 -18,-15 -5,6 -11,11 -18,15zm208 0l37 0c-7,-4 -13,-9 -19,-15 -5,6 -11,11 -18,15zm208 0l34 0c-6,-4 -12,-8 -17,-14 -5,6 -11,10 -17,14zm773 0l68 0 0 -142 -68 0c24,15 40,41 40,71 0,30 -16,57 -40,71zm-739 -142l-34 0c6,4 12,9 17,14 5,-5 11,-10 17,-14zm-205 0l-37 0c7,4 13,9 18,15 6,-6 12,-11 19,-15zm-209 0l-36 0c7,4 13,9 18,15 6,-6 12,-11 18,-15zm-275 308l0 1180 1496 0 0 -1180 -1496 0zm193 254l136 -170c16,-19 39,-31 64,-31l443 0 1 0 265 0c25,0 49,12 64,31l137 170c2,3 4,6 6,9l1 1 1 1 1 3 2 3 0 0 1 3 1 2 1 2 1 3 0 1 1 2 0 2 0 0 1 2 0 2 0 2 1 2 0 3 0 1c0,3 1,7 1,9l0 737c0,46 -38,83 -83,83l-983 0c-45,0 -82,-37 -82,-83l0 -738c0,-19 6,-38 19,-52zm179 707c-3,-8 -4,-16 -4,-25 0,-17 6,-34 15,-47 -9,-13 -15,-30 -15,-47 0,-18 6,-34 15,-48 -9,-13 -15,-29 -15,-47 0,-46 37,-83 83,-83l128 0c-2,-8 -4,-16 -4,-25l0 -250 -236 0 0 572 33 0zm751 0l33 0 0 -572 -236 0 0 250c0,9 -1,17 -4,25l129 0c45,0 82,37 82,83 0,18 -5,34 -15,47 10,14 15,30 15,48 0,17 -5,34 -15,47 10,13 15,30 15,47 0,9 -1,17 -4,25zm-369 -297l-6 -9 -7 9 13 0zm166 -441l146 0 -4 -4 -142 0 0 4zm-491 0l146 0 0 -4 -142 0 -4 4zm312 -4l0 209c2,0 5,-1 8,-1 0,0 1,0 1,0 2,0 3,1 5,1l0 -209 -14 0z"/>
   <path class="fil1" d="M2130 2239l-1527 0c-81,0 -146,-65 -146,-146l0 -1520c0,-80 65,-146 146,-146l1527 0c81,0 146,66 146,146l0 1520c0,81 -65,146 -146,146zm-1429 -1504c-30,-12 -52,-41 -52,-75 0,-34 22,-63 52,-74l-85 0 0 149 85 0zm142 0l66 0c-13,-5 -24,-13 -33,-24 -9,11 -20,19 -33,24zm208 0l66 0c-13,-5 -24,-13 -33,-24 -8,11 -20,19 -33,24zm208 0l64 0c-12,-5 -23,-13 -32,-22 -8,9 -19,17 -32,22zm773 0l86 0 0 -149 -86 0c30,11 52,40 52,74 0,34 -22,63 -52,75zm-709 -149l-64 0c13,5 24,12 32,22 9,-10 20,-17 32,-22zm-206 0l-66 0c13,5 25,13 33,23 9,-10 20,-18 33,-23zm-208 0l-66 0c13,5 24,13 33,23 9,-10 20,-18 33,-23zm-293 307l0 1188 1502 0 0 -1188 -1502 0zm1318 287l0 2 1 2 0 0 0 2 1 1 0 3 0 1 1 3 0 1c0,3 0,7 0,9l0 737c0,44 -35,79 -79,79l-983 0c-43,0 -79,-35 -79,-79l0 -738c0,-19 7,-37 18,-50l137 -170c15,-18 37,-29 61,-29l443 0 1 0 265 0c24,0 47,11 62,29l137 170c2,3 4,6 5,8l1 2 1 1 1 2 2 3 0 1 1 2 1 2 0 2 1 3 1 1zm-938 682c-4,-9 -6,-19 -6,-29 0,-17 6,-34 16,-47 -10,-13 -16,-30 -16,-47 0,-18 6,-34 16,-48 -10,-13 -16,-29 -16,-47 0,-44 36,-79 80,-79l133 0c-4,-9 -5,-19 -5,-29l0 -253 -243 0 0 579 41 0zm742 0l41 0 0 -579 -243 0 0 253c0,10 -2,20 -5,29l133 0c43,0 79,35 79,79 0,18 -6,34 -16,47 10,14 16,30 16,48 0,17 -6,34 -16,47 10,13 16,30 16,47 0,10 -2,20 -5,29zm-358 -297l-13 -19 -13 19 26 0zm156 -441l156 0 -9 -12 -147 0 0 12zm-495 0l157 0 0 -12 -148 0 -9 12zm315 -12l0 217c4,-1 8,-1 12,-1 0,0 1,0 1,0 3,0 5,0 8,0l0 -216 -21 0z"/>
   <path class="fil1" d="M2130 2236l-1527 0c-79,0 -143,-64 -143,-143l0 -1520c0,-78 64,-142 143,-142l1527 0c79,0 143,64 143,142l0 1520c0,79 -64,143 -143,143zm-1518 -1653l0 155 1509 0 0 -155 -1509 0zm264 123c-14,18 -36,30 -60,30l-87 0c-42,0 -76,-34 -76,-76 0,-42 34,-76 76,-76l87 0c24,0 46,12 60,30 14,-18 36,-30 61,-30l87 0c24,0 46,12 60,30 14,-18 36,-30 61,-30l87 0c24,0 45,12 59,29 14,-17 36,-29 60,-29l654 0c41,0 76,34 76,76 0,42 -35,76 -76,76l-654 0c-24,0 -46,-11 -60,-29 -14,18 -35,29 -59,29l-87 0c-25,0 -47,-12 -61,-30 -14,18 -36,30 -60,30l-87 0c-25,0 -47,-12 -61,-30zm-264 184l0 1194 1509 0 0 -1194 -1509 0zm1319 291l0 2 1 2 0 0 0 1 0 2 1 2 0 2 0 3 0 0c1,4 1,7 1,9l0 737c0,42 -34,76 -76,76l-983 0c-41,0 -76,-34 -76,-76l0 -738c0,-18 7,-35 18,-48l136 -170c15,-18 36,-28 59,-28l443 0 1 0 265 0c23,0 45,10 59,28l137 171c2,2 4,5 6,7l0 1 1 1 1 3 2 3 1 2 1 2 0 2 1 3 1 1zm-930 684c-5,-10 -7,-20 -7,-32 0,-18 6,-34 16,-47 -10,-13 -16,-29 -16,-47 0,-18 6,-35 16,-48 -10,-13 -16,-29 -16,-47 0,-42 34,-76 76,-76l138 0c-5,-10 -7,-20 -7,-32l0 -257 -250 0 0 586 50 0zm732 0l49 0 0 -586 -250 0 0 257c0,12 -2,22 -6,32l138 0c42,0 76,34 76,76 0,18 -7,34 -17,47 10,13 17,30 17,48 0,18 -7,34 -17,47 10,13 17,29 17,47 0,12 -3,22 -7,32zm-347 -297l-19 -28 -19 28 38 0zm146 -441l167 0 -14 -18 -153 0 0 18zm-498 0l167 0 0 -18 -152 0 -15 18zm319 -18l0 224c5,-1 10,-2 15,-2 0,0 1,0 1,0 4,0 8,0 11,1l0 -223 -27 0z"/>
   <path class="fil1" d="M2130 2233l-1527 0c-77,0 -139,-63 -139,-140l0 -1520c0,-77 62,-139 139,-139l1527 0c77,0 140,62 140,139l0 1520c0,77 -63,140 -140,140zm-1521 -1654l0 162 1515 0 0 -162 -1515 0zm267 121c-13,20 -35,33 -60,33l-87 0c-40,0 -73,-33 -73,-73 0,-40 33,-72 73,-72l87 0c25,0 47,13 60,32 13,-19 36,-32 61,-32l87 0c25,0 47,13 60,32 13,-19 36,-32 61,-32l87 0c24,0 46,12 59,31 13,-19 35,-31 60,-31l654 0c40,0 72,32 72,72 0,40 -32,73 -72,73l-654 0c-25,0 -47,-12 -60,-31 -13,19 -35,31 -59,31l-87 0c-25,0 -48,-13 -61,-33 -13,20 -35,33 -60,33l-87 0c-25,0 -48,-13 -61,-33zm-267 187l0 1200 1515 0 0 -1200 -1515 0zm1318 295l1 2 0 1 0 0 1 2 0 2 1 2 0 1 0 3 0 1c0,3 1,6 1,8l0 737c0,40 -33,73 -73,73l-983 0c-40,0 -72,-33 -72,-73l0 -738c0,-17 6,-34 16,-46l137 -169c14,-18 34,-28 56,-28l443 0 1 0 265 0c22,0 43,10 57,28l136 170c2,2 4,4 6,7l0 1 1 1 1 2 2 4 1 2 0 1 1 3 1 2 0 1zm-921 686c-6,-10 -9,-22 -9,-35 0,-18 7,-34 18,-47 -11,-13 -18,-29 -18,-47 0,-18 7,-35 18,-48 -11,-12 -18,-29 -18,-47 0,-40 33,-73 73,-73l143 0c-6,-10 -9,-22 -9,-35l0 -260 -256 0 0 592 58 0zm721 0l58 0 0 -592 -256 0 0 260c0,13 -3,25 -9,35l144 0c40,0 72,33 72,73 0,18 -6,35 -17,47 11,13 17,30 17,48 0,18 -6,34 -17,47 11,13 17,29 17,47 0,13 -3,25 -9,35zm-335 -297l-25 -37 -26 37 51 0zm137 -441l177 0 -20 -24 -157 0 0 24zm-502 0l177 0 0 -24 -157 0 -20 24zm323 -24l0 231c6,-2 12,-3 18,-3 0,0 1,0 1,0 5,0 10,1 15,2l0 -230 -34 0z"/>
   <path class="fil1" d="M2130 2229l-1527 0c-75,0 -136,-61 -136,-136l0 -1520c0,-75 61,-136 136,-136l1527 0c75,0 136,61 136,136l0 1520c0,75 -61,136 -136,136zm-1524 -1653l0 169 1522 0 0 -169 -1522 0zm270 118c-12,21 -34,36 -60,36l-87 0c-38,0 -70,-32 -70,-70 0,-38 32,-69 70,-69l87 0c26,0 48,14 60,36 12,-22 35,-36 61,-36l87 0c26,0 48,14 60,36 12,-22 35,-36 61,-36l87 0c25,0 47,13 59,34 12,-21 34,-34 60,-34l654 0c38,0 69,31 69,69 0,38 -31,70 -69,70l-654 0c-26,0 -48,-14 -60,-34 -12,20 -34,34 -59,34l-87 0c-26,0 -49,-15 -61,-36 -12,21 -34,36 -60,36l-87 0c-26,0 -49,-15 -61,-36zm-270 189l0 1208 1522 0 0 -1208 -1522 0zm1318 300l1 2 0 1 1 2 0 1 0 3 0 1 1 2 0 1c0,3 0,6 0,8l0 737c0,38 -31,69 -69,69l-983 0c-38,0 -69,-31 -69,-69l0 -738c0,-16 6,-32 16,-44l136 -169c14,-17 33,-26 54,-26l443 0 1 0 265 0c21,0 41,9 54,26l137 170c2,2 3,4 5,7l0 1 2 2 0 1 2 3 1 2 0 2 1 2 1 2 0 1zm-912 689c-7,-11 -12,-25 -12,-39 0,-18 8,-35 19,-47 -11,-12 -19,-29 -19,-47 0,-19 8,-35 19,-48 -11,-12 -19,-29 -19,-47 0,-38 32,-69 70,-69l149 0c-7,-11 -12,-25 -12,-39l0 -263 -262 0 0 599 67 0zm709 0l68 0 0 -599 -263 0 0 263c0,14 -4,28 -12,39l150 0c38,0 69,31 69,69 0,18 -7,35 -19,47 12,13 19,29 19,48 0,18 -7,35 -19,47 12,12 19,29 19,47 0,14 -4,28 -12,39zm-322 -297l-32 -46 -32 46 64 0zm127 -441l187 0 -25 -32 -162 0 0 32zm-506 0l187 0 0 -32 -161 0 -26 32zm326 -32l0 239c7,-2 15,-3 22,-3 0,0 1,0 1,0 6,0 12,1 18,2l0 -238 -41 0z"/>
   <path class="fil1" d="M2130 2226l-1527 0c-73,0 -133,-59 -133,-133l0 -1520c0,-73 60,-132 133,-132l1527 0c74,0 133,59 133,132l0 1520c0,74 -59,133 -133,133zm-1528 -1478l1529 0 0 -175c0,0 0,0 -1,0l-1527 0c0,0 -1,0 -1,0l0 175zm274 -62c-10,24 -33,40 -60,40l-87 0c-37,0 -66,-29 -66,-66 0,-36 29,-66 66,-66l87 0c27,0 50,17 60,40 10,-23 34,-40 61,-40l87 0c27,0 50,17 60,40 10,-23 34,-40 61,-40l87 0c26,0 49,16 59,38 11,-22 34,-38 60,-38l654 0c36,0 66,30 66,66 0,37 -30,66 -66,66l-654 0c-26,0 -49,-15 -60,-37 -10,22 -33,37 -59,37l-87 0c-27,0 -51,-16 -61,-40 -10,24 -33,40 -60,40l-87 0c-27,0 -51,-16 -61,-40zm-274 194l0 1213c0,1 1,1 1,1l1527 0c1,0 1,0 1,-1l0 -1213 -1529 0zm1319 304l1 2 0 1 0 2 1 3 0 4 1 0c0,3 0,6 0,8l0 737c0,36 -30,66 -66,66l-983 0c-36,0 -66,-30 -66,-66l0 -738c0,-15 6,-30 15,-42l137 -169c12,-16 31,-25 51,-25l443 0 1 0 265 0c20,0 39,9 51,25l137 170c2,2 4,4 5,7l1 0 1 3 1 3 1 0 1 2 0 2 1 2 1 2 0 1zm-902 691c-10,-11 -15,-26 -15,-42 0,-18 7,-35 20,-47 -13,-12 -20,-29 -20,-47 0,-19 7,-36 20,-48 -13,-12 -20,-28 -20,-47 0,-36 29,-66 66,-66l156 0c-10,-12 -15,-26 -15,-42l0 -267 -270 0 0 606 78 0zm696 0l77 0 0 -606 -270 0 0 267c0,16 -5,31 -14,42l156 0c36,0 66,30 66,66 0,19 -8,35 -20,47 12,12 20,29 20,48 0,18 -8,35 -20,47 12,12 20,29 20,47 0,16 -6,31 -15,42zm-310 -297c-1,-1 -2,-3 -3,-4l-35 -51 -36 52c-1,1 -2,2 -3,3l77 0zm117 -441l198 0 -31 -38 -167 0 0 38zm-509 0l198 0 0 -38 -167 0 -31 38zm330 -38l0 247c8,-3 16,-5 25,-5 0,0 1,0 1,0 7,0 15,1 21,4l0 -246 -47 0z"/>
   <path class="fil1" d="M2130 2223l-1527 0c-71,0 -129,-58 -129,-130l0 -1520c0,-71 58,-129 129,-129l1527 0c72,0 130,58 130,129l0 1520c0,72 -58,130 -130,130zm-1531 -1472l1535 0 0 -178c0,-2 -1,-4 -4,-4l-1527 0c-2,0 -4,2 -4,4l0 178zm277 -75c-7,27 -31,47 -60,47l-87 0c-35,0 -63,-28 -63,-63 0,-34 28,-62 63,-62l87 0c29,0 53,19 60,46 7,-27 32,-46 61,-46l87 0c29,0 53,19 60,46 7,-27 32,-46 61,-46l87 0c27,0 51,18 59,43 8,-25 32,-43 60,-43l654 0c34,0 62,28 62,62 0,35 -28,63 -62,63l-654 0c-28,0 -52,-18 -60,-43 -8,25 -32,43 -59,43l-87 0c-29,0 -54,-20 -61,-47 -7,27 -31,47 -60,47l-87 0c-29,0 -54,-20 -61,-47zm-277 201l0 1216c0,3 2,4 4,4l1527 0c3,0 4,-1 4,-4l0 -1216 -1535 0zm1319 307l0 3 1 1 0 1 1 4 0 3 0 1c0,2 1,5 1,7l0 737c0,35 -29,63 -63,63l-983 0c-34,0 -62,-28 -62,-63l0 -738c0,-15 5,-29 14,-39l137 -170c11,-15 29,-24 48,-24l443 0 1 0 265 0c19,0 37,9 49,24l137 170c1,2 3,4 4,7l1 1 1 2 2 3 1 2 0 1 1 2 1 2 0 0zm-892 694c-12,-11 -19,-27 -19,-45 0,-19 8,-36 22,-47 -14,-11 -22,-28 -22,-47 0,-19 8,-36 22,-48 -14,-11 -22,-28 -22,-47 0,-35 28,-63 63,-63l163 0c-12,-11 -19,-27 -19,-45l0 -270 -276 0 0 612 88 0zm681 0l88 0 0 -612 -276 0 0 270c0,18 -7,34 -19,45l164 0c34,0 62,28 62,63 0,19 -8,36 -21,47 13,12 21,29 21,48 0,19 -8,36 -21,47 13,11 21,28 21,47 0,18 -7,34 -19,45zm-294 -297c-3,-3 -6,-6 -8,-9l-38 -55 -39 56c-2,3 -5,6 -7,8l92 0zm106 -441l208 0 -36 -44 -172 0 0 44zm-513 0l208 0 0 -44 -172 0 -36 44zm334 -44l0 255c8,-4 18,-7 28,-7 0,0 1,0 1,0 9,0 17,2 25,6l0 -254 -54 0z"/>
   <path class="fil1" d="M2130 2219l-1527 0c-70,0 -126,-56 -126,-126l0 -1520c0,-69 56,-126 126,-126l1527 0c70,0 126,57 126,126l0 1520c0,70 -56,126 -126,126zm-1534 -1464l1542 0 0 -182c0,-4 -4,-7 -8,-7l-1527 0c-4,0 -7,3 -7,7l0 182zm636 -35l-87 0c-33,0 -59,-27 -59,-60 0,-33 26,-59 59,-59l87 0c32,0 59,26 59,59 0,33 -27,60 -59,60zm773 0l-654 0c-33,0 -60,-27 -60,-60 0,-33 27,-59 60,-59l654 0c32,0 59,26 59,59 0,33 -27,60 -59,60zm-981 0l-87 0c-33,0 -60,-27 -60,-60 0,-33 27,-59 60,-59l87 0c32,0 59,26 59,59 0,33 -27,60 -59,60zm-208 0l-87 0c-33,0 -60,-27 -60,-60 0,-33 27,-59 60,-59l87 0c32,0 59,26 59,59 0,33 -27,60 -59,60zm-220 153l0 1220c0,4 3,8 7,8l1527 0c4,0 8,-4 8,-8l0 -1220 -1542 0zm1318 312l1 3 0 1 1 2 1 3 0 3c0,3 0,5 0,7l0 737c0,33 -26,59 -59,59l-983 0c-32,0 -59,-26 -59,-59l0 -738c0,-14 5,-27 14,-37l136 -170c11,-14 28,-22 46,-22l443 0 1 0 265 0c18,0 35,8 46,22l137 170c2,2 3,4 5,6l0 2 1 2 2 2 1 3 1 2 0 2 0 0zm-879 697c-15,-11 -25,-29 -25,-49 0,-19 10,-36 24,-47 -14,-11 -24,-28 -24,-47 0,-20 10,-37 24,-48 -14,-11 -24,-28 -24,-47 0,-33 27,-59 60,-59l172 0c-15,-11 -25,-29 -25,-49l0 -273 -282 0 0 619 100 0zm663 0l101 0 0 -619 -283 0 0 273c0,20 -10,38 -25,49l173 0c32,0 59,26 59,59 0,19 -9,36 -24,47 15,11 24,28 24,48 0,19 -9,36 -24,47 15,11 24,28 24,47 0,20 -10,38 -25,49zm-276 -297c-6,-4 -11,-9 -15,-15l-40 -59 -42 60c-4,5 -8,10 -14,14l111 0zm94 -441l218 0 -41 -52 -177 0 0 52zm-517 0l218 0 0 -52 -176 0 -42 52zm337 -52l0 265c10,-6 21,-9 32,-9 0,0 1,0 1,0 10,0 20,2 28,7l0 -263 -61 0z"/>
   <path class="fil1" d="M2130 2216l-1527 0c-68,0 -123,-55 -123,-123l0 -1520c0,-67 55,-122 123,-122l1527 0c68,0 123,55 123,122l0 1520c0,68 -55,123 -123,123zm-1538 -1458l1549 0 0 -185c0,-6 -5,-10 -11,-10l-1527 0c-6,0 -11,4 -11,10l0 185zm640 -42l-87 0c-31,0 -56,-25 -56,-56 0,-31 25,-56 56,-56l87 0c31,0 56,25 56,56 0,31 -25,56 -56,56zm773 0l-654 0c-31,0 -56,-25 -56,-56 0,-31 25,-56 56,-56l654 0c30,0 56,25 56,56 0,31 -26,56 -56,56zm-981 0l-87 0c-31,0 -56,-25 -56,-56 0,-31 25,-56 56,-56l87 0c30,0 56,25 56,56 0,31 -26,56 -56,56zm-208 0l-87 0c-31,0 -56,-25 -56,-56 0,-31 25,-56 56,-56l87 0c30,0 56,25 56,56 0,31 -26,56 -56,56zm-224 154l0 1223c0,6 5,11 11,11l1527 0c6,0 11,-5 11,-11l0 -1223 -1549 0zm1319 316l1 3 0 0 1 3 0 3 1 2c0,3 0,5 0,7l0 737c0,31 -25,56 -56,56l-983 0c-30,0 -56,-25 -56,-56l0 -738c0,-13 5,-26 13,-35l137 -170c10,-13 26,-21 43,-21l443 0 1 0 265 0c17,0 33,8 44,21l137 170c1,2 2,4 4,6l1 1 0 2 2 3 1 3 1 2 0 1 0 0zm-863 699c-20,-9 -34,-29 -34,-52 0,-20 10,-37 26,-47 -16,-10 -26,-27 -26,-47 0,-20 10,-38 26,-48 -16,-10 -26,-27 -26,-47 0,-31 25,-56 56,-56l185 0c-21,-9 -34,-29 -34,-52l0 -277 -289 0 0 626 116 0zm637 0l117 0 0 -626 -289 0 0 277c0,23 -14,43 -35,52l186 0c30,0 56,25 56,56 0,20 -11,37 -26,47 15,10 26,28 26,48 0,20 -11,37 -27,47 16,10 27,27 27,47 0,23 -14,43 -35,52zm-250 -297c-10,-4 -19,-11 -25,-20l-43 -63 -44 64c-7,8 -15,15 -24,19l136 0zm78 -441l228 0 -47 -58 -181 0 0 58zm-521 0l229 0 0 -58 -182 0 -47 58zm341 -58l0 275c10,-8 22,-13 35,-13 0,0 1,0 1,0 11,0 22,4 31,10l0 -272 -67 0z"/>
   <path class="fil1" d="M2130 2213l-1527 0c-66,0 -120,-54 -120,-120l0 -1520c0,-66 54,-119 120,-119l1527 0c66,0 120,53 120,119l0 1520c0,66 -54,120 -120,120zm-1541 -1452l1555 0 0 -188c0,-7 -6,-14 -14,-14l-1527 0c-8,0 -14,7 -14,14l0 188zm643 -48l-87 0c-29,0 -53,-24 -53,-53 0,-29 24,-52 53,-52l87 0c29,0 52,23 52,52 0,29 -23,53 -52,53zm773 0l-654 0c-29,0 -53,-24 -53,-53 0,-29 24,-52 53,-52l654 0c29,0 52,23 52,52 0,29 -23,53 -52,53zm-981 0l-87 0c-29,0 -53,-24 -53,-53 0,-29 24,-52 53,-52l87 0c29,0 52,23 52,52 0,29 -23,53 -52,53zm-208 0l-87 0c-29,0 -53,-24 -53,-53 0,-29 24,-52 53,-52l87 0c29,0 52,23 52,52 0,29 -23,53 -52,53zm-227 154l0 1226c0,8 6,14 14,14l1527 0c8,0 14,-6 14,-14l0 -1226 -1555 0zm1319 320l1 3 0 3 1 2 0 3c0,2 1,4 1,6l0 737c0,29 -24,53 -53,53l-983 0c-29,0 -52,-24 -52,-53l0 -738c0,-12 4,-24 12,-33l136 -170c10,-12 25,-20 41,-20l444 0 0 0 265 0c16,0 31,8 41,20l137 170c1,2 3,4 4,6l1 1 1 2 1 2 1 3 1 2 0 1 0 0zm-980 69l0 632 877 0 0 -632 -296 0 0 280c0,24 -15,44 -37,51 -5,1 -10,2 -16,2 -17,0 -33,-8 -43,-23l-46 -67 -47 68c-13,18 -37,27 -59,20 -22,-7 -37,-28 -37,-51l0 -280 -296 0zm759 530c17,9 29,27 29,47 0,29 -23,53 -52,53l-594 0c-29,0 -53,-24 -53,-53 0,-20 12,-38 30,-47 -18,-9 -30,-27 -30,-47 0,-21 12,-39 30,-48 -18,-8 -30,-26 -30,-47 0,-29 24,-53 53,-53l594 0c29,0 52,24 52,53 0,21 -12,39 -29,47 17,9 29,27 29,48 0,20 -12,38 -29,47zm-178 -636l239 0 -52 -64 -187 0 0 64zm-523 0l238 0 0 -64 -186 0 -52 64zm344 -64l0 285c9,-10 23,-17 38,-17 0,0 1,0 1,0 13,1 25,6 35,14l0 -282 -74 0z"/>
   <path class="fil1" d="M2130 2209l-1527 0c-64,0 -116,-52 -116,-116l0 -1520c0,-64 52,-116 116,-116l1527 0c64,0 117,52 117,116l0 1520c0,64 -53,116 -117,116zm-1544 -1444l1562 0 0 -192c0,-9 -8,-17 -18,-17l-1527 0c-10,0 -17,8 -17,17l0 192zm646 -55l-87 0c-27,0 -49,-23 -49,-50 0,-27 22,-49 49,-49l87 0c27,0 49,22 49,49 0,27 -22,50 -49,50zm773 0l-654 0c-27,0 -50,-23 -50,-50 0,-27 23,-49 50,-49l654 0c27,0 49,22 49,49 0,27 -22,50 -49,50zm-981 0l-87 0c-27,0 -50,-23 -50,-50 0,-27 23,-49 50,-49l87 0c27,0 49,22 49,49 0,27 -22,50 -49,50zm-208 0l-87 0c-27,0 -50,-23 -50,-50 0,-27 23,-49 50,-49l87 0c27,0 49,22 49,49 0,27 -22,50 -49,50zm-230 153l0 1230c0,10 7,18 17,18l1527 0c10,0 18,-8 18,-18l0 -1230 -1562 0zm1319 325l1 3 0 2 1 3 0 2c0,2 0,4 0,6l0 737c0,27 -22,49 -49,49l-983 0c-27,0 -49,-22 -49,-49l0 -738c0,-11 4,-23 11,-31l137 -170c9,-12 23,-18 38,-18l444 0 0 0 265 0c15,0 29,6 38,18l137 170c2,2 3,3 4,5l2 3 1 3 1 2 1 3 0 0zm-980 65l0 639 884 0 0 -639 -303 0 0 283c0,22 -14,41 -35,48 -5,1 -10,2 -15,2 -16,0 -31,-8 -40,-22l-48 -70 -51 71c-12,17 -35,25 -55,19 -21,-7 -35,-26 -35,-48l0 -283 -302 0zm753 533c20,6 35,25 35,47 0,28 -22,50 -49,50l-594 0c-27,0 -50,-22 -50,-50 0,-22 15,-41 36,-47 -21,-6 -36,-25 -36,-47 0,-23 15,-42 36,-48 -21,-6 -36,-25 -36,-47 0,-27 23,-49 50,-49l594 0c27,0 49,22 49,49 0,22 -15,41 -35,47 20,6 35,25 35,48 0,22 -15,41 -35,47zm-172 -632l249 0 -58 -72 -191 0 0 72zm-527 0l248 0 0 -72 -191 0 -57 72zm347 -72l0 299 2 -2c9,-13 24,-21 40,-21 0,0 1,0 1,0 15,0 29,7 38,19l0 -295 -81 0z"/>
   <path class="fil1" d="M2130 2206l-1527 0c-62,0 -113,-50 -113,-113l0 -1520c0,-62 51,-112 113,-112l1527 0c63,0 113,50 113,112l0 1520c0,63 -50,113 -113,113zm-1548 -1438l1569 0 0 -195c0,-11 -9,-20 -21,-20l-1527 0c-11,0 -21,9 -21,20l0 195zm650 -62l-87 0c-26,0 -46,-20 -46,-46 0,-25 20,-46 46,-46l87 0c25,0 46,21 46,46 0,26 -21,46 -46,46zm773 0l-654 0c-26,0 -46,-20 -46,-46 0,-25 20,-46 46,-46l654 0c25,0 46,21 46,46 0,26 -21,46 -46,46zm-981 0l-87 0c-26,0 -46,-20 -46,-46 0,-25 20,-46 46,-46l87 0c25,0 46,21 46,46 0,26 -21,46 -46,46zm-208 0l-87 0c-26,0 -46,-20 -46,-46 0,-25 20,-46 46,-46l87 0c25,0 46,21 46,46 0,26 -21,46 -46,46zm-234 154l0 1233c0,12 10,21 21,21l1527 0c12,0 21,-9 21,-21l0 -1233 -1569 0zm1320 329l0 3 1 2 0 2 1 2c0,2 0,4 0,6l0 737c0,25 -21,46 -46,46l-983 0c-25,0 -46,-21 -46,-46l0 -738c0,-11 4,-21 11,-29l137 -170c8,-11 21,-17 35,-17l444 0 0 0 265 0c14,0 27,6 36,17l137 170c1,2 2,3 3,5l2 3 1 2 1 2 1 3 0 0zm-980 60l0 646 890 0 0 -646 -309 0 0 287c0,21 -14,38 -33,44 -4,2 -9,2 -14,2 -15,0 -29,-7 -38,-20l-50 -74 -54 75c-11,16 -32,23 -51,17 -19,-6 -32,-24 -32,-44l0 -287 -309 0zm742 441l-594 0c-26,0 -46,-21 -46,-46 0,-25 20,-46 46,-46l594 0c25,0 46,21 46,46 0,25 -21,46 -46,46zm0 95l-594 0c-26,0 -46,-21 -46,-46 0,-26 20,-46 46,-46l594 0c25,0 46,20 46,46 0,25 -21,46 -46,46zm0 94l-594 0c-26,0 -46,-20 -46,-46 0,-25 20,-46 46,-46l594 0c25,0 46,21 46,46 0,26 -21,46 -46,46zm-161 -722l259 0 -63 -78 -196 0 0 78zm-531 0l259 0 0 -78 -197 0 -62 78zm351 -78l0 313 8 -11c8,-13 22,-20 37,-20 0,0 1,0 1,0 15,0 29,8 37,20l4 6 0 -308 -87 0z"/>
   <path class="fil1" d="M2130 2203l-1527 0c-60,0 -110,-49 -110,-110l0 -1520c0,-60 50,-109 110,-109l1527 0c61,0 110,49 110,109l0 1520c0,61 -49,110 -110,110zm-1551 -1432l1575 0 0 -198c0,-13 -10,-24 -24,-24l-1527 0c-13,0 -24,11 -24,24l0 198zm653 -68l-87 0c-24,0 -43,-19 -43,-43 0,-23 19,-42 43,-42l87 0c23,0 42,19 42,42 0,24 -19,43 -42,43zm773 0l-654 0c-24,0 -43,-19 -43,-43 0,-23 19,-42 43,-42l654 0c23,0 42,19 42,42 0,24 -19,43 -42,43zm-981 0l-87 0c-24,0 -43,-19 -43,-43 0,-23 19,-42 43,-42l87 0c23,0 42,19 42,42 0,24 -19,43 -42,43zm-208 0l-87 0c-24,0 -43,-19 -43,-43 0,-23 19,-42 43,-42l87 0c23,0 42,19 42,42 0,24 -19,43 -42,43zm-237 154l0 1236c0,14 11,24 24,24l1527 0c14,0 24,-10 24,-24l0 -1236 -1575 0zm1320 333l0 0 0 3 1 2 0 2 0 2c1,2 1,3 1,5l0 737c0,23 -20,43 -43,43l-983 0c-23,0 -42,-20 -42,-43l0 -738c0,-10 3,-20 10,-27l136 -170c8,-10 20,-16 33,-16l444 0 0 0 265 0c13,0 25,6 33,16l137 170c1,2 2,3 3,5l2 2 1 2 1 3 0 2 1 0zm-981 56l0 652 897 0 0 -652 -316 0 0 290c0,19 -12,36 -30,41 -4,1 -8,2 -13,2 -14,0 -27,-7 -35,-18l-53 -79 -56 79c-11,15 -30,22 -48,16 -18,-5 -30,-22 -30,-41l0 -290 -316 0zm746 441l-594 0c-24,0 -43,-19 -43,-43 0,-24 19,-43 43,-43l594 0c23,0 42,19 42,43 0,24 -19,43 -42,43zm0 94l-594 0c-24,0 -43,-19 -43,-42 0,-24 19,-43 43,-43l594 0c23,0 42,19 42,43 0,23 -19,42 -42,42zm0 95l-594 0c-24,0 -43,-19 -43,-43 0,-23 19,-42 43,-42l594 0c23,0 42,19 42,42 0,24 -19,43 -42,43zm-165 -716l270 0 -68 -84 -202 0 0 84zm-534 0l269 0 0 -84 -201 0 -68 84zm355 -84l0 326 13 -20c8,-11 21,-18 36,-18 14,1 27,7 35,19l10 15 0 -322 -94 0z"/>
   <path class="fil1" d="M2130 2199l-1527 0c-59,0 -106,-47 -106,-106l0 -1520c0,-58 47,-106 106,-106l1527 0c59,0 107,48 107,106l0 1520c0,59 -48,106 -107,106zm-1554 -1424l1582 0 0 -202c0,-15 -12,-27 -28,-27l-1527 0c-15,0 -27,12 -27,27l0 202zm656 -75l-87 0c-22,0 -39,-18 -39,-40 0,-22 17,-39 39,-39l87 0c21,0 39,17 39,39 0,22 -18,40 -39,40zm773 0l-654 0c-22,0 -40,-18 -40,-40 0,-22 18,-39 40,-39l654 0c21,0 39,17 39,39 0,22 -18,40 -39,40zm-981 0l-87 0c-22,0 -40,-18 -40,-40 0,-22 18,-39 40,-39l87 0c21,0 39,17 39,39 0,22 -18,40 -39,40zm-208 0l-87 0c-22,0 -40,-18 -40,-40 0,-22 18,-39 40,-39l87 0c21,0 39,17 39,39 0,22 -18,40 -39,40zm-240 153l0 1240c0,15 12,28 27,28l1527 0c16,0 28,-13 28,-28l0 -1240 -1582 0zm1319 338l1 2 0 2 1 2 0 2 0 0c0,2 0,3 0,5l0 737c0,22 -17,39 -39,39l-983 0c-21,0 -39,-17 -39,-39l0 -738c0,-9 3,-18 9,-25l137 -170c7,-9 18,-14 30,-14l444 0 0 0 265 0c12,0 23,5 31,14l137 170c1,2 1,3 2,5l2 2 1 2 1 2 0 2 0 0zm-980 52l0 659 903 0 0 -659 -322 0 0 293c0,18 -11,33 -28,38 -4,1 -8,2 -12,2 -12,0 -25,-7 -32,-17l-56 -83 -59 83c-10,14 -28,20 -44,15 -16,-5 -28,-20 -28,-38l0 -293 -322 0zm749 440l-594 0c-22,0 -40,-17 -40,-39 0,-22 18,-39 40,-39l594 0c21,0 39,17 39,39 0,22 -18,39 -39,39zm0 95l-594 0c-22,0 -40,-18 -40,-39 0,-22 18,-40 40,-40l594 0c21,0 39,18 39,40 0,21 -18,39 -39,39zm0 95l-594 0c-22,0 -40,-18 -40,-40 0,-21 18,-39 40,-39l594 0c21,0 39,18 39,39 0,22 -18,40 -39,40zm-168 -709l280 0 -74 -92 -206 0 0 92zm-538 0l279 0 0 -92 -206 0 -73 92zm358 -92l0 341 20 -29c7,-10 19,-16 33,-16 12,0 25,6 32,17l16 24 0 -337 -101 0z"/>
   <path class="fil1" d="M2130 2196l-1527 0c-57,0 -103,-46 -103,-103l0 -1520c0,-56 46,-102 103,-102l1527 0c57,0 103,46 103,102l0 1520c0,57 -46,103 -103,103zm-1558 -1418l1589 0 0 -205c0,-17 -14,-30 -31,-30l-1527 0c-17,0 -31,13 -31,30l0 205zm660 -82l-87 0c-20,0 -36,-16 -36,-36 0,-20 16,-36 36,-36l87 0c19,0 36,16 36,36 0,20 -17,36 -36,36zm773 0l-654 0c-20,0 -36,-16 -36,-36 0,-20 16,-36 36,-36l654 0c19,0 36,16 36,36 0,20 -17,36 -36,36zm-981 0l-87 0c-20,0 -36,-16 -36,-36 0,-20 16,-36 36,-36l87 0c19,0 36,16 36,36 0,20 -17,36 -36,36zm-208 0l-87 0c-20,0 -36,-16 -36,-36 0,-20 16,-36 36,-36l87 0c19,0 36,16 36,36 0,20 -17,36 -36,36zm-244 154l0 1243c0,17 14,31 31,31l1527 0c17,0 31,-14 31,-31l0 -1243 -1589 0zm1320 342l1 2 0 1 0 2 1 2 0 0c0,2 0,3 0,5l0 737c0,20 -16,36 -36,36l-983 0c-19,0 -36,-16 -36,-36l0 -738c0,-8 3,-17 9,-23l136 -170c7,-8 17,-13 28,-13l444 0 0 0 265 0c11,0 21,5 28,13l137 171c1,1 2,2 3,3l1 3 1 1 0 2 1 2 0 0zm-980 47l0 666 910 0 0 -666 -329 0 0 297c0,16 -11,30 -26,35 -3,1 -7,1 -11,1 -11,0 -23,-5 -29,-15l-59 -87 -62 87c-9,13 -25,19 -40,14 -15,-5 -25,-19 -25,-35l0 -297 -329 0zm752 441l-594 0c-20,0 -36,-16 -36,-36 0,-20 16,-36 36,-36l594 0c19,0 36,16 36,36 0,20 -17,36 -36,36zm0 95l-594 0c-20,0 -36,-16 -36,-36 0,-20 16,-36 36,-36l594 0c19,0 36,16 36,36 0,20 -17,36 -36,36zm0 94l-594 0c-20,0 -36,-16 -36,-36 0,-20 16,-36 36,-36l594 0c19,0 36,16 36,36 0,20 -17,36 -36,36zm-171 -702l290 0 -79 -98 -211 0 0 98zm-542 0l290 0 0 -98 -211 0 -79 98zm362 -98l0 354 26 -37c7,-9 18,-15 30,-15 11,0 22,6 29,16l22 33 0 -351 -107 0z"/>
   <path class="fil1" d="M2130 2193l-1527 0c-55,0 -100,-45 -100,-100l0 -1520c0,-55 45,-99 100,-99l1527 0c55,0 100,44 100,99l0 1520c0,55 -45,100 -100,100zm-1561 -1412l1595 0 0 -208c0,-18 -15,-34 -34,-34l-1527 0c-19,0 -34,16 -34,34l0 208zm663 -88l-87 0c-18,0 -33,-15 -33,-33 0,-18 15,-32 33,-32l87 0c18,0 32,14 32,32 0,18 -14,33 -32,33zm773 0l-654 0c-18,0 -33,-15 -33,-33 0,-18 15,-32 33,-32l654 0c18,0 32,14 32,32 0,18 -14,33 -32,33zm-981 0l-87 0c-18,0 -33,-15 -33,-33 0,-18 15,-32 33,-32l87 0c18,0 32,14 32,32 0,18 -14,33 -32,33zm-208 0l-87 0c-18,0 -33,-15 -33,-33 0,-18 15,-32 33,-32l87 0c18,0 32,14 32,32 0,18 -14,33 -32,33zm-247 154l0 1246c0,19 15,34 34,34l1527 0c19,0 34,-15 34,-34l0 -1246 -1595 0zm1320 346l0 1 1 2 0 2 0 2 0 0c1,1 1,3 1,4l0 737c0,18 -15,33 -33,33l-983 0c-18,0 -32,-15 -32,-33l0 -738c0,-8 2,-15 7,-21l137 -169c6,-8 15,-13 25,-13l444 0 0 0 265 0c10,0 19,5 25,13l137 170c1,1 2,2 3,3l1 2 1 2 0 1 1 2 0 0zm-981 43l0 672 917 0 0 -672 -336 0 0 300c0,15 -9,27 -23,32 -3,1 -6,1 -10,1 -10,0 -20,-5 -27,-14l-61 -91 -64 91c-9,12 -24,17 -37,13 -14,-5 -23,-17 -23,-32l0 -300 -336 0zm756 441l-594 0c-18,0 -33,-15 -33,-33 0,-18 15,-33 33,-33l594 0c18,0 32,15 32,33 0,18 -14,33 -32,33zm0 94l-594 0c-18,0 -33,-14 -33,-32 0,-18 15,-33 33,-33l594 0c18,0 32,15 32,33 0,18 -14,32 -32,32zm0 95l-594 0c-18,0 -33,-15 -33,-33 0,-18 15,-32 33,-32l594 0c18,0 32,14 32,32 0,18 -14,33 -32,33zm-175 -696l301 0 -85 -104 -216 0 0 104zm-545 0l300 0 0 -104 -216 0 -84 104zm366 -104l0 368 32 -46c6,-8 16,-14 27,-14 10,0 20,6 26,15l29 41 0 -364 -114 0z"/>
   <path class="fil1" d="M2130 2189l-1527 0c-53,0 -96,-43 -96,-96l0 -1520c0,-53 43,-96 96,-96l1527 0c53,0 97,43 97,96l0 1520c0,53 -44,96 -97,96zm-1564 -1405l1602 0 0 -211c0,-20 -17,-37 -38,-37l-1527 0c-21,0 -37,17 -37,37l0 211zm666 -94l-87 0c-16,0 -30,-14 -30,-30 0,-16 14,-29 30,-29l87 0c16,0 29,13 29,29 0,16 -13,30 -29,30zm773 0l-654 0c-16,0 -30,-14 -30,-30 0,-16 14,-29 30,-29l654 0c16,0 29,13 29,29 0,16 -13,30 -29,30zm-981 0l-87 0c-16,0 -30,-14 -30,-30 0,-16 14,-29 30,-29l87 0c16,0 29,13 29,29 0,16 -13,30 -29,30zm-208 0l-87 0c-16,0 -30,-14 -30,-30 0,-16 14,-29 30,-29l87 0c16,0 29,13 29,29 0,16 -13,30 -29,30zm-250 153l0 1250c0,21 16,38 37,38l1527 0c21,0 38,-17 38,-38l0 -1250 -1602 0zm1292 1127l-983 0c-16,0 -29,-13 -29,-29l0 -738c0,-7 3,-13 7,-19l136 -169c6,-7 14,-11 23,-11l444 0 0 0 265 0c9,0 17,4 23,11l137 170c1,1 1,2 2,3l1 2 1 1 0 1 1 2 0 1 1 2 0 1 0 2 0 0c0,1 0,3 0,4l0 737c0,16 -13,29 -29,29zm-953 -737l0 679 923 0 0 -679 -342 0 0 303c0,13 -9,25 -21,29 -3,0 -6,1 -9,1 -9,0 -18,-5 -24,-13l-64 -94 -67 94c-8,11 -21,15 -33,11 -12,-3 -21,-15 -21,-28l0 -303 -342 0zm759 440l-594 0c-16,0 -30,-13 -30,-29 0,-16 14,-29 30,-29l594 0c16,0 29,13 29,29 0,16 -13,29 -29,29zm0 95l-594 0c-16,0 -30,-13 -30,-29 0,-17 14,-30 30,-30l594 0c16,0 29,13 29,30 0,16 -13,29 -29,29zm0 95l-594 0c-16,0 -30,-13 -30,-30 0,-16 14,-29 30,-29l594 0c16,0 29,13 29,29 0,17 -13,30 -29,30zm-178 -689l311 0 -90 -112 -221 0 0 112zm-549 0l310 0 0 -112 -221 0 -89 112zm369 -112l0 382 38 -54c6,-8 15,-12 25,-12 9,0 18,5 24,13l34 50 0 -379 -121 0z"/>
   <path class="fil1" d="M2130 2186l-1527 0c-51,0 -93,-41 -93,-93l0 -1520c0,-51 42,-92 93,-92l1527 0c52,0 93,41 93,92l0 1520c0,52 -41,93 -93,93zm-1568 -1398l1609 0 0 -215c0,-22 -18,-40 -41,-40l-1527 0c-23,0 -41,18 -41,40l0 215zm670 -102l-87 0c-15,0 -26,-11 -26,-26 0,-14 11,-26 26,-26l87 0c14,0 26,12 26,26 0,15 -12,26 -26,26zm773 0l-654 0c-15,0 -26,-11 -26,-26 0,-14 11,-26 26,-26l654 0c14,0 26,12 26,26 0,15 -12,26 -26,26zm-981 0l-87 0c-15,0 -26,-11 -26,-26 0,-14 11,-26 26,-26l87 0c14,0 26,12 26,26 0,15 -12,26 -26,26zm-208 0l-87 0c-15,0 -26,-11 -26,-26 0,-14 11,-26 26,-26l87 0c14,0 26,12 26,26 0,15 -12,26 -26,26zm-254 154l0 1253c0,23 18,41 41,41l1527 0c23,0 41,-18 41,-41l0 -1253 -1609 0zm1296 1127l-983 0c-14,0 -26,-12 -26,-26l0 -738c0,-6 3,-12 7,-17l136 -169c5,-6 12,-10 20,-10l444 0 0 0 265 0c8,0 15,4 20,10l137 170c1,1 1,2 2,3l1 1 1 1 0 2 1 1 0 1 0 2 1 1 0 1 0 1c0,1 0,2 0,3l0 737c0,14 -12,26 -26,26zm-956 -738l0 686 930 0 0 -686 -349 0 0 307c0,12 -8,22 -19,25 -2,1 -5,1 -8,1 -8,0 -16,-4 -21,-11l-67 -98 -70 98c-6,10 -18,14 -29,10 -11,-3 -18,-13 -18,-25l0 -307 -349 0zm762 441l-594 0c-15,0 -26,-12 -26,-26 0,-14 11,-26 26,-26l594 0c14,0 26,12 26,26 0,14 -12,26 -26,26zm0 95l-594 0c-15,0 -26,-12 -26,-26 0,-15 11,-26 26,-26l594 0c14,0 26,11 26,26 0,14 -12,26 -26,26zm0 94l-594 0c-15,0 -26,-11 -26,-26 0,-14 11,-26 26,-26l594 0c14,0 26,12 26,26 0,15 -12,26 -26,26zm-181 -682l320 0 -95 -118 -225 0 0 118zm-553 0l321 0 0 -118 -226 0 -95 118zm373 -118l0 395 44 -62c5,-7 13,-11 21,-11 9,0 17,4 22,11l40 60 0 -393 -127 0z"/>
  </g>
  <g id="_654906072">
   <path class="fil0" d="M2097 2249l-1527 0c-87,0 -156,-70 -156,-156l0 -1520c0,-86 69,-156 156,-156l1527 0c86,0 156,70 156,156l0 1520c0,86 -70,156 -156,156zm-1463 -1524c-17,-17 -28,-40 -28,-65 0,-25 11,-48 28,-64l-42 0 0 129 42 0zm1399 0l42 0 0 -129 -42 0c17,16 28,39 28,64 0,25 -11,48 -28,65zm-1441 178l0 1168 1483 0 0 -1168 -1483 0zm181 243l136 -169c17,-21 43,-33 70,-33l443 0 1 0 265 0c27,0 52,12 69,33l137 170c2,3 5,6 7,9l0 2 1 1 2 3 1 3 1 1 1 2 1 2 1 3 1 3 0 1 1 2 0 2 0 0 1 3 0 1 1 3 0 2 0 3 0 1c1,3 1,7 1,10l0 737c0,49 -40,89 -89,89l-983 0c-49,0 -89,-40 -89,-89l0 -738c0,-21 7,-41 20,-57zm176 706c-1,-6 -2,-12 -2,-19 0,-17 5,-33 14,-47 -9,-14 -14,-30 -14,-47 0,-18 5,-34 14,-48 -9,-13 -14,-30 -14,-47 0,-49 40,-89 89,-89l120 0c-1,-6 -2,-12 -2,-19l0 -244 -223 0 0 560 18 0zm769 0l17 0 0 -560 -223 0 0 244c0,7 0,13 -1,19l119 0c50,0 90,40 90,89 0,17 -5,34 -14,47 9,14 14,30 14,48 0,17 -5,33 -14,47 9,14 14,30 14,47 0,7 -1,13 -2,19zm-385 -730l0 196c0,0 1,0 1,0l0 -196 -1 0z"/>
   <path class="fil0" d="M2097 2246l-1527 0c-85,0 -153,-68 -153,-153l0 -1520c0,-84 68,-152 153,-152l1527 0c84,0 153,68 153,152l0 1520c0,85 -69,153 -153,153zm-1455 -1518c-20,-16 -33,-40 -33,-68 0,-27 13,-52 33,-67l-53 0 0 135 53 0zm193 0l15 0c-2,-2 -5,-4 -7,-7 -3,3 -5,5 -8,7zm208 0l15 0c-2,-2 -5,-4 -7,-7 -3,3 -5,5 -8,7zm208 0l13 0c-2,-2 -4,-4 -6,-6 -2,2 -4,4 -7,6zm773 0l54 0 0 -135 -54 0c20,15 33,40 33,67 0,28 -13,52 -33,68zm-760 -135l-13 0c3,1 5,3 7,5 2,-2 4,-4 6,-5zm-206 0l-15 0c3,2 5,4 8,6 2,-2 5,-4 7,-6zm-208 0l-15 0c3,2 5,4 8,6 2,-2 5,-4 7,-6zm-261 307l0 1174 1489 0 0 -1174 -1489 0zm187 249l136 -170c16,-20 41,-32 67,-32l443 0 1 0 265 0c26,0 50,12 67,32l137 170c2,3 4,6 6,9l0 1 1 2 2 2 1 3 1 1 1 3 0 2 1 2 1 3 1 1 0 2 1 2 0 0 0 2 1 2 0 3 1 1 0 4 0 0c0,4 1,7 1,10l0 737c0,47 -39,86 -86,86l-983 0c-47,0 -86,-39 -86,-86l0 -738c0,-20 7,-39 20,-54zm177 706c-2,-7 -3,-14 -3,-22 0,-17 6,-33 15,-47 -9,-14 -15,-30 -15,-47 0,-18 6,-34 15,-48 -9,-13 -15,-30 -15,-47 0,-47 39,-86 86,-86l124 0c-2,-7 -2,-14 -2,-22l0 -247 -230 0 0 566 25 0zm760 0l26 0 0 -566 -230 0 0 247c0,8 -1,15 -3,22l124 0c48,0 86,39 86,86 0,17 -5,34 -14,47 9,14 14,30 14,48 0,17 -5,33 -14,47 9,14 14,30 14,47 0,8 -1,15 -3,22zm-379 -297l0 0 0 0 0 0zm-4 -439l0 202c1,0 3,0 5,0 0,0 0,0 1,0 0,0 1,0 1,0l0 -202 -7 0z"/>
   <path class="fil0" d="M2097 2243l-1527 0c-83,0 -150,-67 -150,-150l0 -1520c0,-82 67,-149 150,-149l1527 0c82,0 149,67 149,149l0 1520c0,83 -66,150 -149,150zm-1444 -1512c-24,-14 -40,-41 -40,-71 0,-30 16,-56 40,-71l-67 0 0 142 67 0zm172 0l36 0c-7,-4 -13,-9 -18,-15 -6,6 -12,11 -18,15zm208 0l36 0c-7,-4 -13,-9 -18,-15 -5,6 -12,11 -18,15zm208 0l34 0c-6,-4 -12,-8 -17,-14 -5,6 -11,10 -17,14zm773 0l67 0 0 -142 -67 0c24,15 40,41 40,71 0,30 -16,57 -40,71zm-739 -142l-34 0c6,4 12,9 17,14 5,-5 11,-10 17,-14zm-206 0l-36 0c6,4 13,9 18,15 5,-6 11,-11 18,-15zm-208 0l-36 0c6,4 12,9 18,15 5,-6 11,-11 18,-15zm-275 308l0 1180 1495 0 0 -1180 -1495 0zm192 254l137 -170c15,-19 39,-31 64,-31l443 0 1 0 265 0c25,0 48,12 64,31l137 170c2,3 4,6 6,9l1 1 0 1 2 3 1 3 1 0 1 3 0 2 1 2 1 3 1 1 0 2 1 2 0 0 0 2 1 2 0 2 0 2 1 3 0 1c0,3 0,7 0,9l0 737c0,46 -37,83 -82,83l-983 0c-45,0 -83,-37 -83,-83l0 -738c0,-19 7,-38 19,-52zm180 707c-3,-8 -4,-16 -4,-25 0,-17 5,-34 15,-47 -10,-13 -15,-30 -15,-47 0,-18 5,-34 15,-48 -10,-13 -15,-29 -15,-47 0,-46 37,-83 82,-83l129 0c-3,-8 -4,-16 -4,-25l0 -250 -236 0 0 572 33 0zm751 0l33 0 0 -572 -236 0 0 250c0,9 -2,17 -4,25l128 0c46,0 83,37 83,83 0,18 -6,34 -15,47 9,14 15,30 15,48 0,17 -6,34 -15,47 9,13 15,30 15,47 0,9 -1,17 -4,25zm-369 -297l-6 -9 -7 9 13 0zm166 -441l146 0 -4 -4 -142 0 0 4zm-491 0l146 0 0 -4 -142 0 -4 4zm311 -4l0 209c3,0 6,-1 9,-1 0,0 0,0 1,0 1,0 3,1 5,1l0 -209 -15 0z"/>
   <path class="fil0" d="M2097 2239l-1527 0c-81,0 -146,-65 -146,-146l0 -1520c0,-80 65,-146 146,-146l1527 0c81,0 146,66 146,146l0 1520c0,81 -65,146 -146,146zm-1429 -1504c-30,-12 -52,-41 -52,-75 0,-34 22,-63 52,-74l-86 0 0 149 86 0zm142 0l66 0c-13,-5 -24,-13 -33,-24 -9,11 -20,19 -33,24zm208 0l66 0c-13,-5 -24,-13 -33,-24 -9,11 -20,19 -33,24zm208 0l64 0c-13,-5 -24,-13 -32,-22 -9,9 -20,17 -32,22zm773 0l86 0 0 -149 -86 0c30,11 52,40 52,74 0,34 -22,63 -52,75zm-709 -149l-64 0c12,5 23,12 32,22 8,-10 19,-17 32,-22zm-206 0l-66 0c13,5 24,13 33,23 9,-10 20,-18 33,-23zm-208 0l-66 0c13,5 24,13 33,23 9,-10 20,-18 33,-23zm-294 307l0 1188 1503 0 0 -1188 -1503 0zm1318 287l1 2 0 2 0 0 1 2 0 1 1 3 0 1 0 3 0 1c1,3 1,7 1,9l0 737c0,44 -36,79 -79,79l-983 0c-44,0 -79,-35 -79,-79l0 -738c0,-19 6,-37 18,-50l136 -170c15,-18 38,-29 62,-29l443 0 1 0 265 0c24,0 46,11 61,29l137 170c2,3 4,6 6,8l1 2 0 1 2 2 1 3 1 1 1 2 0 2 1 2 1 3 0 1zm-938 682c-3,-9 -5,-19 -5,-29 0,-17 6,-34 16,-47 -10,-13 -16,-30 -16,-47 0,-18 6,-34 16,-48 -10,-13 -16,-29 -16,-47 0,-44 36,-79 79,-79l133 0c-3,-9 -5,-19 -5,-29l0 -253 -243 0 0 579 41 0zm742 0l41 0 0 -579 -243 0 0 253c0,10 -1,20 -5,29l133 0c44,0 80,35 80,79 0,18 -6,34 -16,47 10,14 16,30 16,48 0,17 -6,34 -16,47 10,13 16,30 16,47 0,10 -2,20 -6,29zm-358 -297l-12 -19 -13 19 25 0zm156 -441l157 0 -9 -12 -148 0 0 12zm-494 0l156 0 0 -12 -147 0 -9 12zm315 -12l0 217c4,-1 8,-1 12,-1 0,0 0,0 1,0 2,0 5,0 8,0l0 -216 -21 0z"/>
   <path class="fil0" d="M2097 2236l-1527 0c-79,0 -143,-64 -143,-143l0 -1520c0,-78 64,-142 143,-142l1527 0c79,0 143,64 143,142l0 1520c0,79 -64,143 -143,143zm-1518 -1653l0 155 1509 0 0 -155 -1509 0zm264 123c-14,18 -36,30 -61,30l-87 0c-41,0 -76,-34 -76,-76 0,-42 35,-76 76,-76l87 0c25,0 47,12 61,30 14,-18 36,-30 61,-30l86 0c25,0 47,12 61,30 14,-18 36,-30 61,-30l86 0c24,0 46,12 60,29 14,-17 35,-29 59,-29l654 0c42,0 76,34 76,76 0,42 -34,76 -76,76l-654 0c-24,0 -45,-11 -59,-29 -14,18 -36,29 -60,29l-86 0c-25,0 -47,-12 -61,-30 -14,18 -36,30 -61,30l-86 0c-25,0 -47,-12 -61,-30zm-264 184l0 1194 1509 0 0 -1194 -1509 0zm1318 291l1 2 0 2 0 0 1 1 0 2 0 2 1 2 0 3 0 0c0,4 1,7 1,9l0 737c0,42 -35,76 -76,76l-983 0c-42,0 -76,-34 -76,-76l0 -738c0,-18 6,-35 17,-48l137 -170c14,-18 36,-28 59,-28l443 0 1 0 265 0c23,0 44,10 59,28l137 171c2,2 4,5 5,7l1 1 1 1 1 3 2 3 0 2 1 2 1 2 1 3 0 1zm-930 684c-4,-10 -7,-20 -7,-32 0,-18 7,-34 17,-47 -10,-13 -17,-29 -17,-47 0,-18 7,-35 17,-48 -10,-13 -17,-29 -17,-47 0,-42 35,-76 76,-76l138 0c-4,-10 -7,-20 -7,-32l0 -257 -249 0 0 586 49 0zm732 0l50 0 0 -586 -250 0 0 257c0,12 -2,22 -7,32l138 0c42,0 76,34 76,76 0,18 -6,34 -16,47 10,13 16,30 16,48 0,18 -6,34 -16,47 10,13 16,29 16,47 0,12 -2,22 -7,32zm-346 -297l-19 -28 -20 28 39 0zm146 -441l167 0 -15 -18 -152 0 0 18zm-498 0l166 0 0 -18 -152 0 -14 18zm319 -18l0 224c5,-1 10,-2 15,-2 0,0 0,0 1,0 3,0 7,0 11,1l0 -223 -27 0z"/>
   <path class="fil0" d="M2097 2233l-1527 0c-77,0 -140,-63 -140,-140l0 -1520c0,-77 63,-139 140,-139l1527 0c77,0 139,62 139,139l0 1520c0,77 -62,140 -139,140zm-1521 -1654l0 162 1515 0 0 -162 -1515 0zm267 121c-13,20 -35,33 -61,33l-87 0c-40,0 -72,-33 -72,-73 0,-40 32,-72 72,-72l87 0c26,0 48,13 61,32 13,-19 35,-32 61,-32l86 0c26,0 48,13 61,32 13,-19 35,-32 61,-32l86 0c25,0 47,12 60,31 13,-19 35,-31 59,-31l654 0c40,0 73,32 73,72 0,40 -33,73 -73,73l-654 0c-24,0 -46,-12 -59,-31 -13,19 -35,31 -60,31l-86 0c-26,0 -48,-13 -61,-33 -13,20 -35,33 -61,33l-86 0c-26,0 -48,-13 -61,-33zm-267 187l0 1200 1515 0 0 -1200 -1515 0zm1318 295l1 2 0 1 0 0 0 2 1 2 0 2 0 1 1 3 0 1c0,3 0,6 0,8l0 737c0,40 -32,73 -72,73l-983 0c-40,0 -73,-33 -73,-73l0 -738c0,-17 7,-34 17,-46l136 -169c14,-18 35,-28 57,-28l443 0 1 0 265 0c22,0 42,10 56,28l137 170c2,2 4,4 5,7l1 1 1 1 1 2 2 4 0 2 1 1 1 3 1 2 0 1zm-921 686c-6,-10 -9,-22 -9,-35 0,-18 6,-34 17,-47 -11,-13 -17,-29 -17,-47 0,-18 6,-35 17,-48 -11,-12 -17,-29 -17,-47 0,-40 32,-73 72,-73l144 0c-6,-10 -9,-22 -9,-35l0 -260 -256 0 0 592 58 0zm721 0l58 0 0 -592 -256 0 0 260c0,13 -3,25 -9,35l143 0c40,0 73,33 73,73 0,18 -7,35 -18,47 11,13 18,30 18,48 0,18 -7,34 -18,47 11,13 18,29 18,47 0,13 -3,25 -9,35zm-335 -297l-25 -37 -26 37 51 0zm137 -441l177 0 -20 -24 -157 0 0 24zm-502 0l177 0 0 -24 -157 0 -20 24zm322 -24l0 231c6,-2 12,-3 19,-3 0,0 0,0 1,0 5,0 10,1 14,2l0 -230 -34 0z"/>
   <path class="fil0" d="M2097 2229l-1527 0c-75,0 -136,-61 -136,-136l0 -1520c0,-75 61,-136 136,-136l1527 0c75,0 136,61 136,136l0 1520c0,75 -61,136 -136,136zm-1525 -1653l0 169 1522 0 0 -169 -1522 0zm271 118c-12,21 -35,36 -61,36l-87 0c-38,0 -69,-32 -69,-70 0,-38 31,-69 69,-69l87 0c26,0 49,14 61,36 12,-22 34,-36 61,-36l86 0c26,0 49,14 61,36 12,-22 34,-36 61,-36l86 0c26,0 48,13 60,34 12,-21 34,-34 59,-34l654 0c38,0 70,31 70,69 0,38 -32,70 -70,70l-654 0c-25,0 -47,-14 -59,-34 -12,20 -34,34 -60,34l-86 0c-27,0 -49,-15 -61,-36 -12,21 -35,36 -61,36l-86 0c-27,0 -49,-15 -61,-36zm-271 189l0 1208 1522 0 0 -1208 -1522 0zm1319 300l0 2 1 1 0 2 0 1 1 3 0 1 0 2 1 1c0,3 0,6 0,8l0 737c0,38 -31,69 -69,69l-983 0c-38,0 -69,-31 -69,-69l0 -738c0,-16 6,-32 15,-44l137 -169c13,-17 33,-26 54,-26l443 0 1 0 265 0c21,0 40,9 54,26l137 170c1,2 3,4 5,7l0 1 1 2 1 1 1 3 1 2 1 2 1 2 1 2 0 1zm-912 689c-8,-11 -12,-25 -12,-39 0,-18 7,-35 19,-47 -12,-12 -19,-29 -19,-47 0,-19 7,-35 19,-48 -12,-12 -19,-29 -19,-47 0,-38 31,-69 69,-69l150 0c-8,-11 -12,-25 -12,-39l0 -263 -263 0 0 599 68 0zm709 0l67 0 0 -599 -263 0 0 263c0,14 -4,28 -11,39l149 0c38,0 70,31 70,69 0,18 -8,35 -19,47 11,13 19,29 19,48 0,18 -8,35 -19,47 11,12 19,29 19,47 0,14 -5,28 -12,39zm-323 -297l-31 -46 -33 46 64 0zm127 -441l188 0 -26 -32 -162 0 0 32zm-505 0l187 0 0 -32 -162 0 -25 32zm326 -32l0 239c7,-2 14,-3 22,-3 0,0 0,0 0,0 7,0 13,1 19,2l0 -238 -41 0z"/>
   <path class="fil0" d="M2097 2226l-1527 0c-74,0 -133,-59 -133,-133l0 -1520c0,-73 59,-132 133,-132l1527 0c73,0 133,59 133,132l0 1520c0,74 -60,133 -133,133zm-1528 -1478l1529 0 0 -175c0,0 -1,0 -1,0l-1527 0c-1,0 -1,0 -1,0l0 175zm274 -62c-10,24 -34,40 -61,40l-87 0c-36,0 -66,-29 -66,-66 0,-36 30,-66 66,-66l87 0c27,0 51,17 61,40 10,-23 33,-40 61,-40l86 0c27,0 51,17 61,40 10,-23 33,-40 61,-40l86 0c27,0 49,16 60,38 10,-22 33,-38 59,-38l654 0c37,0 66,30 66,66 0,37 -29,66 -66,66l-654 0c-26,0 -49,-15 -59,-37 -11,22 -33,37 -60,37l-86 0c-28,0 -51,-16 -61,-40 -10,24 -34,40 -61,40l-86 0c-28,0 -51,-16 -61,-40zm-274 194l0 1213c0,1 0,1 1,1l1527 0c0,0 1,0 1,-1l0 -1213 -1529 0zm1319 304l0 2 1 1 0 2 1 3 0 4 0 0c0,3 1,6 1,8l0 737c0,36 -30,66 -66,66l-983 0c-36,0 -66,-30 -66,-66l0 -738c0,-15 6,-30 15,-42l137 -169c12,-16 31,-25 51,-25l443 0 1 0 265 0c20,0 39,9 51,25l137 170c2,2 3,4 5,7l0 0 1 3 2 3 0 0 1 2 1 2 1 2 0 2 1 1zm-903 691c-9,-11 -15,-26 -15,-42 0,-18 8,-35 20,-47 -12,-12 -20,-29 -20,-47 0,-19 8,-36 20,-48 -12,-12 -20,-28 -20,-47 0,-36 30,-66 66,-66l156 0c-9,-12 -15,-26 -15,-42l0 -267 -269 0 0 606 77 0zm696 0l78 0 0 -606 -270 0 0 267c0,16 -5,31 -15,42l156 0c37,0 66,30 66,66 0,19 -7,35 -20,47 13,12 20,29 20,48 0,18 -7,35 -20,47 13,12 20,29 20,47 0,16 -5,31 -15,42zm-309 -297c-1,-1 -2,-3 -3,-4l-35 -51 -37 52c0,1 -1,2 -2,3l77 0zm117 -441l198 0 -31 -38 -167 0 0 38zm-509 0l197 0 0 -38 -166 0 -31 38zm330 -38l0 247c7,-3 16,-5 25,-5 0,0 0,0 0,0 8,0 15,1 22,4l0 -246 -47 0z"/>
   <path class="fil0" d="M2097 2223l-1527 0c-72,0 -130,-58 -130,-130l0 -1520c0,-71 58,-129 130,-129l1527 0c71,0 129,58 129,129l0 1520c0,72 -58,130 -129,130zm-1531 -1472l1535 0 0 -178c0,-2 -2,-4 -4,-4l-1527 0c-3,0 -4,2 -4,4l0 178zm277 -75c-7,27 -32,47 -61,47l-87 0c-34,0 -62,-28 -62,-63 0,-34 28,-62 62,-62l87 0c29,0 54,19 61,46 7,-27 31,-46 61,-46l86 0c29,0 54,19 61,46 7,-27 31,-46 61,-46l86 0c28,0 52,18 60,43 8,-25 32,-43 59,-43l654 0c35,0 63,28 63,62 0,35 -28,63 -63,63l-654 0c-27,0 -51,-18 -59,-43 -8,25 -32,43 -60,43l-86 0c-30,0 -54,-20 -61,-47 -7,27 -32,47 -61,47l-86 0c-30,0 -54,-20 -61,-47zm-277 201l0 1216c0,3 1,4 4,4l1527 0c2,0 4,-1 4,-4l0 -1216 -1535 0zm1318 307l1 3 0 1 1 1 0 4 1 3 0 1c0,2 0,5 0,7l0 737c0,35 -28,63 -62,63l-983 0c-34,0 -63,-28 -63,-63l0 -738c0,-15 6,-29 15,-39l136 -170c12,-15 30,-24 49,-24l443 0 1 0 265 0c19,0 37,9 48,24l137 170c2,2 3,4 5,7l1 1 1 2 1 3 1 2 1 1 0 2 1 2 0 0zm-891 694c-12,-11 -19,-27 -19,-45 0,-19 8,-36 21,-47 -13,-11 -21,-28 -21,-47 0,-19 8,-36 21,-48 -13,-11 -21,-28 -21,-47 0,-35 28,-63 62,-63l164 0c-12,-11 -19,-27 -19,-45l0 -270 -276 0 0 612 88 0zm681 0l88 0 0 -612 -276 0 0 270c0,18 -7,34 -19,45l163 0c35,0 63,28 63,63 0,19 -8,36 -22,47 14,12 22,29 22,48 0,19 -8,36 -22,47 14,11 22,28 22,47 0,18 -7,34 -19,45zm-295 -297c-3,-3 -5,-6 -8,-9l-37 -55 -39 56c-3,3 -5,6 -8,8l92 0zm107 -441l208 0 -36 -44 -172 0 0 44zm-513 0l208 0 0 -44 -172 0 -36 44zm333 -44l0 255c9,-4 19,-7 29,-7 0,0 0,0 0,0 9,0 18,2 25,6l0 -254 -54 0z"/>
   <path class="fil0" d="M2097 2219l-1527 0c-70,0 -127,-56 -127,-126l0 -1520c0,-69 57,-126 127,-126l1527 0c70,0 126,57 126,126l0 1520c0,70 -56,126 -126,126zm-1535 -1464l1542 0 0 -182c0,-4 -3,-7 -7,-7l-1527 0c-4,0 -8,3 -8,7l0 182zm636 -35l-86 0c-33,0 -60,-27 -60,-60 0,-33 27,-59 60,-59l86 0c33,0 60,26 60,59 0,33 -27,60 -60,60zm773 0l-654 0c-32,0 -59,-27 -59,-60 0,-33 27,-59 59,-59l654 0c33,0 60,26 60,59 0,33 -27,60 -60,60zm-981 0l-86 0c-33,0 -60,-27 -60,-60 0,-33 27,-59 60,-59l86 0c33,0 60,26 60,59 0,33 -27,60 -60,60zm-208 0l-87 0c-32,0 -59,-27 -59,-60 0,-33 27,-59 59,-59l87 0c33,0 60,26 60,59 0,33 -27,60 -60,60zm-220 153l0 1220c0,4 4,8 8,8l1527 0c4,0 7,-4 7,-8l0 -1220 -1542 0zm1319 312l1 3 0 1 1 2 0 3 1 3c0,3 0,5 0,7l0 737c0,33 -27,59 -59,59l-983 0c-33,0 -59,-26 -59,-59l0 -738c0,-14 5,-27 13,-37l137 -170c11,-14 28,-22 46,-22l443 0 1 0 265 0c18,0 35,8 46,22l137 170c1,2 3,4 4,6l1 2 1 2 1 2 2 3 0 2 1 2 0 0zm-879 697c-15,-11 -25,-29 -25,-49 0,-19 9,-36 24,-47 -15,-11 -24,-28 -24,-47 0,-20 9,-37 24,-48 -15,-11 -24,-28 -24,-47 0,-33 27,-59 59,-59l173 0c-15,-11 -25,-29 -25,-49l0 -273 -283 0 0 619 101 0zm663 0l100 0 0 -619 -282 0 0 273c0,20 -10,38 -25,49l172 0c33,0 60,26 60,59 0,19 -10,36 -24,47 14,11 24,28 24,48 0,19 -10,36 -24,47 14,11 24,28 24,47 0,20 -10,38 -25,49zm-276 -297c-6,-4 -11,-9 -15,-15l-40 -59 -42 60c-4,5 -9,10 -14,14l111 0zm94 -441l218 0 -42 -52 -176 0 0 52zm-517 0l218 0 0 -52 -177 0 -41 52zm337 -52l0 265c9,-6 20,-9 32,-9 0,0 0,0 0,0 11,0 20,2 29,7l0 -263 -61 0z"/>
   <path class="fil0" d="M2097 2216l-1527 0c-68,0 -123,-55 -123,-123l0 -1520c0,-67 55,-122 123,-122l1527 0c68,0 123,55 123,122l0 1520c0,68 -55,123 -123,123zm-1538 -1458l1549 0 0 -185c0,-6 -5,-10 -11,-10l-1527 0c-6,0 -11,4 -11,10l0 185zm639 -42l-86 0c-31,0 -56,-25 -56,-56 0,-31 25,-56 56,-56l86 0c31,0 56,25 56,56 0,31 -25,56 -56,56zm773 0l-654 0c-30,0 -56,-25 -56,-56 0,-31 26,-56 56,-56l654 0c31,0 56,25 56,56 0,31 -25,56 -56,56zm-981 0l-86 0c-31,0 -57,-25 -57,-56 0,-31 26,-56 57,-56l86 0c31,0 56,25 56,56 0,31 -25,56 -56,56zm-208 0l-87 0c-30,0 -56,-25 -56,-56 0,-31 26,-56 56,-56l87 0c31,0 56,25 56,56 0,31 -25,56 -56,56zm-223 154l0 1223c0,6 5,11 11,11l1527 0c6,0 11,-5 11,-11l0 -1223 -1549 0zm1319 316l1 3 0 0 0 3 1 3 0 2c0,3 1,5 1,7l0 737c0,31 -26,56 -56,56l-983 0c-31,0 -56,-25 -56,-56l0 -738c0,-13 5,-26 13,-35l136 -170c11,-13 27,-21 44,-21l443 0 1 0 265 0c17,0 33,8 43,21l137 170c2,2 3,4 4,6l1 1 1 2 1 3 2 3 0 2 1 1 0 0zm-863 699c-21,-9 -35,-29 -35,-52 0,-20 11,-37 27,-47 -16,-10 -27,-27 -27,-47 0,-20 11,-38 27,-48 -16,-10 -27,-27 -27,-47 0,-31 26,-56 56,-56l185 0c-20,-9 -34,-29 -34,-52l0 -277 -289 0 0 626 117 0zm637 0l117 0 0 -626 -290 0 0 277c0,23 -13,43 -34,52l185 0c31,0 56,25 56,56 0,20 -10,37 -26,47 16,10 26,28 26,48 0,20 -10,37 -26,47 16,10 26,27 26,47 0,23 -14,43 -34,52zm-251 -297c-9,-4 -18,-11 -24,-20l-43 -63 -45 64c-6,8 -14,15 -24,19l136 0zm78 -441l229 0 -47 -58 -182 0 0 58zm-520 0l228 0 0 -58 -181 0 -47 58zm341 -58l0 275c9,-8 22,-13 35,-13 0,0 0,0 0,0 12,0 23,4 32,10l0 -272 -67 0z"/>
   <path class="fil0" d="M2097 2213l-1527 0c-66,0 -120,-54 -120,-120l0 -1520c0,-66 54,-119 120,-119l1527 0c66,0 120,53 120,119l0 1520c0,66 -54,120 -120,120zm-1541 -1452l1555 0 0 -188c0,-7 -6,-14 -14,-14l-1527 0c-8,0 -14,7 -14,14l0 188zm642 -48l-86 0c-30,0 -53,-24 -53,-53 0,-29 23,-52 53,-52l86 0c29,0 53,23 53,52 0,29 -24,53 -53,53zm773 0l-654 0c-29,0 -52,-24 -52,-53 0,-29 23,-52 52,-52l654 0c29,0 53,23 53,52 0,29 -24,53 -53,53zm-981 0l-86 0c-30,0 -53,-24 -53,-53 0,-29 23,-52 53,-52l86 0c29,0 53,23 53,52 0,29 -24,53 -53,53zm-208 0l-87 0c-29,0 -52,-24 -52,-53 0,-29 23,-52 52,-52l87 0c29,0 53,23 53,52 0,29 -24,53 -53,53zm-226 154l0 1226c0,8 6,14 14,14l1527 0c8,0 14,-6 14,-14l0 -1226 -1555 0zm1319 320l1 3 0 3 1 2 0 3c0,2 0,4 0,6l0 737c0,29 -23,53 -52,53l-983 0c-29,0 -53,-24 -53,-53l0 -738c0,-12 5,-24 12,-33l137 -170c10,-12 25,-20 41,-20l443 0 1 0 265 0c16,0 31,8 41,20l137 170c1,2 2,4 4,6l0 1 1 2 1 2 2 3 0 2 1 1 0 0zm-980 69l0 632 877 0 0 -632 -296 0 0 280c0,24 -15,44 -37,51 -5,1 -11,2 -16,2 -17,0 -34,-8 -43,-23l-46 -67 -47 68c-14,18 -38,27 -59,20 -22,-7 -37,-28 -37,-51l0 -280 -296 0zm758 530c18,9 30,27 30,47 0,29 -24,53 -53,53l-594 0c-29,0 -52,-24 -52,-53 0,-20 12,-38 29,-47 -17,-9 -29,-27 -29,-47 0,-21 12,-39 29,-48 -17,-8 -29,-26 -29,-47 0,-29 23,-53 52,-53l594 0c29,0 53,24 53,53 0,21 -12,39 -30,47 18,9 30,27 30,48 0,20 -12,38 -30,47zm-177 -636l238 0 -52 -64 -186 0 0 64zm-524 0l239 0 0 -64 -187 0 -52 64zm344 -64l0 285c10,-10 24,-17 39,-17 0,0 0,0 0,0 14,1 26,6 35,14l0 -282 -74 0z"/>
   <path class="fil0" d="M2097 2209l-1527 0c-64,0 -117,-52 -117,-116l0 -1520c0,-64 53,-116 117,-116l1527 0c64,0 116,52 116,116l0 1520c0,64 -52,116 -116,116zm-1545 -1444l1562 0 0 -192c0,-9 -7,-17 -17,-17l-1527 0c-10,0 -18,8 -18,17l0 192zm646 -55l-86 0c-28,0 -50,-23 -50,-50 0,-27 22,-49 50,-49l86 0c28,0 50,22 50,49 0,27 -22,50 -50,50zm773 0l-654 0c-27,0 -49,-23 -49,-50 0,-27 22,-49 49,-49l654 0c27,0 50,22 50,49 0,27 -23,50 -50,50zm-981 0l-86 0c-28,0 -50,-23 -50,-50 0,-27 22,-49 50,-49l86 0c27,0 50,22 50,49 0,27 -23,50 -50,50zm-208 0l-87 0c-27,0 -49,-23 -49,-50 0,-27 22,-49 49,-49l87 0c27,0 50,22 50,49 0,27 -23,50 -50,50zm-230 153l0 1230c0,10 8,18 18,18l1527 0c10,0 17,-8 17,-18l0 -1230 -1562 0zm1320 325l0 3 1 2 0 3 1 2c0,2 0,4 0,6l0 737c0,27 -22,49 -49,49l-983 0c-27,0 -49,-22 -49,-49l0 -738c0,-11 4,-23 11,-31l137 -170c9,-12 23,-18 38,-18l443 0 1 0 265 0c15,0 29,6 38,18l137 170c1,2 2,3 4,5l1 3 1 3 1 2 1 3 1 0zm-980 65l0 639 883 0 0 -639 -302 0 0 283c0,22 -15,41 -35,48 -5,1 -10,2 -15,2 -16,0 -31,-8 -41,-22l-48 -70 -50 71c-13,17 -35,25 -55,19 -21,-7 -35,-26 -35,-48l0 -283 -302 0zm752 533c21,6 36,25 36,47 0,28 -23,50 -50,50l-594 0c-27,0 -49,-22 -49,-50 0,-22 15,-41 35,-47 -20,-6 -35,-25 -35,-47 0,-23 15,-42 35,-48 -20,-6 -35,-25 -35,-47 0,-27 22,-49 49,-49l594 0c27,0 50,22 50,49 0,22 -15,41 -36,47 21,6 36,25 36,48 0,22 -15,41 -36,47zm-171 -632l248 0 -57 -72 -191 0 0 72zm-528 0l249 0 0 -72 -191 0 -58 72zm348 -72l0 299 2 -2c9,-13 24,-21 40,-21 0,0 0,0 0,0 15,0 30,7 39,19l0 -295 -81 0z"/>
   <path class="fil0" d="M2097 2206l-1527 0c-63,0 -113,-50 -113,-113l0 -1520c0,-62 50,-112 113,-112l1527 0c62,0 113,50 113,112l0 1520c0,63 -51,113 -113,113zm-1548 -1438l1569 0 0 -195c0,-11 -9,-20 -21,-20l-1527 0c-12,0 -21,9 -21,20l0 195zm649 -62l-86 0c-26,0 -46,-20 -46,-46 0,-25 20,-46 46,-46l86 0c26,0 46,21 46,46 0,26 -20,46 -46,46zm773 0l-654 0c-25,0 -46,-20 -46,-46 0,-25 21,-46 46,-46l654 0c26,0 46,21 46,46 0,26 -20,46 -46,46zm-981 0l-86 0c-26,0 -47,-20 -47,-46 0,-25 21,-46 47,-46l86 0c26,0 46,21 46,46 0,26 -20,46 -46,46zm-208 0l-87 0c-25,0 -46,-20 -46,-46 0,-25 21,-46 46,-46l87 0c26,0 46,21 46,46 0,26 -20,46 -46,46zm-233 154l0 1233c0,12 9,21 21,21l1527 0c12,0 21,-9 21,-21l0 -1233 -1569 0zm1319 329l1 3 1 2 0 2 0 2c1,2 1,4 1,6l0 737c0,25 -21,46 -46,46l-983 0c-25,0 -46,-21 -46,-46l0 -738c0,-11 4,-21 11,-29l136 -170c9,-11 22,-17 36,-17l443 0 1 0 265 0c14,0 27,6 35,17l137 170c2,2 3,3 4,5l1 3 1 2 1 2 1 3 0 0zm-980 60l0 646 891 0 0 -646 -310 0 0 287c0,21 -13,38 -32,44 -5,2 -9,2 -14,2 -15,0 -29,-7 -38,-20l-51 -74 -53 75c-11,16 -32,23 -51,17 -20,-6 -33,-24 -33,-44l0 -287 -309 0zm742 441l-594 0c-25,0 -46,-21 -46,-46 0,-25 21,-46 46,-46l594 0c26,0 46,21 46,46 0,25 -20,46 -46,46zm0 95l-594 0c-25,0 -46,-21 -46,-46 0,-26 21,-46 46,-46l594 0c26,0 46,20 46,46 0,25 -20,46 -46,46zm0 94l-594 0c-25,0 -46,-20 -46,-46 0,-25 21,-46 46,-46l594 0c26,0 46,21 46,46 0,26 -20,46 -46,46zm-161 -722l259 0 -62 -78 -197 0 0 78zm-531 0l259 0 0 -78 -196 0 -63 78zm352 -78l0 313 7 -11c9,-13 23,-20 38,-20 0,0 0,0 0,0 15,0 29,8 38,20l4 6 0 -308 -87 0z"/>
   <path class="fil0" d="M2097 2203l-1527 0c-61,0 -110,-49 -110,-110l0 -1520c0,-60 49,-109 110,-109l1527 0c60,0 110,49 110,109l0 1520c0,61 -50,110 -110,110zm-1551 -1432l1575 0 0 -198c0,-13 -11,-24 -24,-24l-1527 0c-14,0 -24,11 -24,24l0 198zm652 -68l-86 0c-24,0 -43,-19 -43,-43 0,-23 19,-42 43,-42l86 0c24,0 43,19 43,42 0,24 -19,43 -43,43zm773 0l-654 0c-23,0 -42,-19 -42,-43 0,-23 19,-42 42,-42l654 0c24,0 43,19 43,42 0,24 -19,43 -43,43zm-981 0l-86 0c-24,0 -43,-19 -43,-43 0,-23 19,-42 43,-42l86 0c24,0 43,19 43,42 0,24 -19,43 -43,43zm-208 0l-87 0c-23,0 -42,-19 -42,-43 0,-23 19,-42 42,-42l87 0c24,0 43,19 43,42 0,24 -19,43 -43,43zm-236 154l0 1236c0,14 10,24 24,24l1527 0c13,0 24,-10 24,-24l0 -1236 -1575 0zm1319 333l0 0 1 3 0 2 1 2 0 2c0,2 0,3 0,5l0 737c0,23 -19,43 -42,43l-983 0c-23,0 -43,-20 -43,-43l0 -738c0,-10 4,-20 10,-27l137 -170c8,-10 20,-16 33,-16l443 0 1 0 265 0c13,0 25,6 33,16l137 170c1,2 2,3 3,5l1 2 1 2 1 3 1 2 0 0zm-980 56l0 652 897 0 0 -652 -316 0 0 290c0,19 -12,36 -30,41 -4,1 -9,2 -13,2 -14,0 -27,-7 -35,-18l-54 -79 -56 79c-10,15 -30,22 -47,16 -18,-5 -30,-22 -30,-41l0 -290 -316 0zm745 441l-594 0c-23,0 -42,-19 -42,-43 0,-24 19,-43 42,-43l594 0c24,0 43,19 43,43 0,24 -19,43 -43,43zm0 94l-594 0c-23,0 -42,-19 -42,-42 0,-24 19,-43 42,-43l594 0c24,0 43,19 43,43 0,23 -19,42 -43,42zm0 95l-594 0c-23,0 -42,-19 -42,-43 0,-23 19,-42 42,-42l594 0c24,0 43,19 43,42 0,24 -19,43 -43,43zm-164 -716l269 0 -68 -84 -201 0 0 84zm-535 0l270 0 0 -84 -202 0 -68 84zm355 -84l0 326 14 -20c8,-11 21,-18 35,-18 14,1 27,7 35,19l10 15 0 -322 -94 0z"/>
   <path class="fil0" d="M2097 2199l-1527 0c-59,0 -107,-47 -107,-106l0 -1520c0,-58 48,-106 107,-106l1527 0c59,0 106,48 106,106l0 1520c0,59 -47,106 -106,106zm-1555 -1424l1582 0 0 -202c0,-15 -12,-27 -27,-27l-1527 0c-16,0 -28,12 -28,27l0 202zm656 -75l-86 0c-22,0 -40,-18 -40,-40 0,-22 18,-39 40,-39l86 0c22,0 40,17 40,39 0,22 -18,40 -40,40zm773 0l-654 0c-21,0 -39,-18 -39,-40 0,-22 18,-39 39,-39l654 0c22,0 40,17 40,39 0,22 -18,40 -40,40zm-981 0l-86 0c-22,0 -40,-18 -40,-40 0,-22 18,-39 40,-39l86 0c22,0 40,17 40,39 0,22 -18,40 -40,40zm-208 0l-87 0c-21,0 -39,-18 -39,-40 0,-22 18,-39 39,-39l87 0c22,0 40,17 40,39 0,22 -18,40 -40,40zm-240 153l0 1240c0,15 12,28 28,28l1527 0c15,0 27,-13 27,-28l0 -1240 -1582 0zm1320 338l0 2 1 2 0 2 1 2 0 0c0,2 0,3 0,5l0 737c0,22 -18,39 -39,39l-983 0c-22,0 -39,-17 -39,-39l0 -738c0,-9 3,-18 9,-25l136 -170c8,-9 19,-14 31,-14l443 0 1 0 265 0c12,0 23,5 30,14l137 170c1,2 2,3 3,5l1 2 1 2 1 2 1 2 0 0zm-980 52l0 659 903 0 0 -659 -322 0 0 293c0,18 -12,33 -28,38 -4,1 -8,2 -12,2 -13,0 -25,-7 -32,-17l-57 -83 -58 83c-10,14 -28,20 -44,15 -17,-5 -28,-20 -28,-38l0 -293 -322 0zm748 440l-594 0c-21,0 -39,-17 -39,-39 0,-22 18,-39 39,-39l594 0c22,0 40,17 40,39 0,22 -18,39 -40,39zm0 95l-594 0c-21,0 -39,-18 -39,-39 0,-22 18,-40 39,-40l594 0c22,0 40,18 40,40 0,21 -18,39 -40,39zm0 95l-594 0c-21,0 -39,-18 -39,-40 0,-21 18,-39 39,-39l594 0c22,0 40,18 40,39 0,22 -18,40 -40,40zm-167 -709l279 0 -73 -92 -206 0 0 92zm-539 0l280 0 0 -92 -206 0 -74 92zm359 -92l0 341 20 -29c7,-10 19,-16 32,-16 13,0 25,6 32,17l17 24 0 -337 -101 0z"/>
   <path class="fil0" d="M2097 2196l-1527 0c-57,0 -103,-46 -103,-103l0 -1520c0,-56 46,-102 103,-102l1527 0c57,0 103,46 103,102l0 1520c0,57 -46,103 -103,103zm-1558 -1418l1589 0 0 -205c0,-17 -14,-30 -31,-30l-1527 0c-17,0 -31,13 -31,30l0 205zm659 -82l-86 0c-20,0 -36,-16 -36,-36 0,-20 16,-36 36,-36l86 0c20,0 36,16 36,36 0,20 -16,36 -36,36zm773 0l-654 0c-19,0 -36,-16 -36,-36 0,-20 17,-36 36,-36l654 0c20,0 36,16 36,36 0,20 -16,36 -36,36zm-981 0l-86 0c-20,0 -37,-16 -37,-36 0,-20 17,-36 37,-36l86 0c20,0 36,16 36,36 0,20 -16,36 -36,36zm-208 0l-87 0c-19,0 -36,-16 -36,-36 0,-20 17,-36 36,-36l87 0c20,0 36,16 36,36 0,20 -16,36 -36,36zm-243 154l0 1243c0,17 14,31 31,31l1527 0c17,0 31,-14 31,-31l0 -1243 -1589 0zm1320 342l0 2 1 1 0 2 0 2 0 0c1,2 1,3 1,5l0 737c0,20 -17,36 -36,36l-983 0c-20,0 -36,-16 -36,-36l0 -738c0,-8 3,-17 8,-23l137 -170c7,-8 17,-13 28,-13l443 0 1 0 265 0c11,0 21,5 28,13l137 171c1,1 1,2 2,3l2 3 0 1 1 2 1 2 0 0zm-981 47l0 666 910 0 0 -666 -329 0 0 297c0,16 -10,30 -25,35 -4,1 -7,1 -11,1 -12,0 -23,-5 -30,-15l-59 -87 -61 87c-9,13 -26,19 -40,14 -15,-5 -26,-19 -26,-35l0 -297 -329 0zm752 441l-594 0c-19,0 -36,-16 -36,-36 0,-20 17,-36 36,-36l594 0c20,0 36,16 36,36 0,20 -16,36 -36,36zm0 95l-594 0c-19,0 -36,-16 -36,-36 0,-20 17,-36 36,-36l594 0c20,0 36,16 36,36 0,20 -16,36 -36,36zm0 94l-594 0c-19,0 -36,-16 -36,-36 0,-20 17,-36 36,-36l594 0c20,0 36,16 36,36 0,20 -16,36 -36,36zm-171 -702l290 0 -79 -98 -211 0 0 98zm-542 0l290 0 0 -98 -211 0 -79 98zm363 -98l0 354 25 -37c7,-9 18,-15 30,-15 12,0 23,6 30,16l22 33 0 -351 -107 0z"/>
   <path class="fil0" d="M2097 2193l-1527 0c-55,0 -100,-45 -100,-100l0 -1520c0,-55 45,-99 100,-99l1527 0c55,0 100,44 100,99l0 1520c0,55 -45,100 -100,100zm-1561 -1412l1595 0 0 -208c0,-18 -15,-34 -34,-34l-1527 0c-19,0 -34,16 -34,34l0 208zm662 -88l-86 0c-19,0 -33,-15 -33,-33 0,-18 14,-32 33,-32l86 0c18,0 33,14 33,32 0,18 -15,33 -33,33zm773 0l-654 0c-18,0 -32,-15 -32,-33 0,-18 14,-32 32,-32l654 0c18,0 33,14 33,32 0,18 -15,33 -33,33zm-981 0l-86 0c-19,0 -33,-15 -33,-33 0,-18 14,-32 33,-32l86 0c18,0 33,14 33,32 0,18 -15,33 -33,33zm-208 0l-87 0c-18,0 -32,-15 -32,-33 0,-18 14,-32 32,-32l87 0c18,0 33,14 33,32 0,18 -15,33 -33,33zm-246 154l0 1246c0,19 15,34 34,34l1527 0c19,0 34,-15 34,-34l0 -1246 -1595 0zm1320 346l0 1 0 2 1 2 0 2 0 0c0,1 0,3 0,4l0 737c0,18 -14,33 -32,33l-983 0c-18,0 -33,-15 -33,-33l0 -738c0,-8 3,-15 8,-21l137 -169c6,-8 15,-13 25,-13l443 0 1 0 265 0c10,0 19,5 25,13l137 170c1,1 2,2 2,3l2 2 0 2 1 1 1 2 0 0zm-981 43l0 672 917 0 0 -672 -336 0 0 300c0,15 -9,27 -23,32 -3,1 -7,1 -10,1 -11,0 -21,-5 -27,-14l-62 -91 -64 91c-8,12 -23,17 -36,13 -14,-5 -23,-17 -23,-32l0 -300 -336 0zm755 441l-594 0c-18,0 -32,-15 -32,-33 0,-18 14,-33 32,-33l594 0c18,0 33,15 33,33 0,18 -15,33 -33,33zm0 94l-594 0c-18,0 -32,-14 -32,-32 0,-18 14,-33 32,-33l594 0c18,0 33,15 33,33 0,18 -15,32 -33,32zm0 95l-594 0c-18,0 -32,-15 -32,-33 0,-18 14,-32 32,-32l594 0c18,0 33,14 33,32 0,18 -15,33 -33,33zm-174 -696l300 0 -84 -104 -216 0 0 104zm-546 0l301 0 0 -104 -216 0 -85 104zm366 -104l0 368 32 -46c6,-8 16,-14 27,-14 11,0 21,6 27,15l28 41 0 -364 -114 0z"/>
   <path class="fil0" d="M2097 2189l-1527 0c-53,0 -97,-43 -97,-96l0 -1520c0,-53 44,-96 97,-96l1527 0c53,0 96,43 96,96l0 1520c0,53 -43,96 -96,96zm-1565 -1405l1602 0 0 -211c0,-20 -16,-37 -37,-37l-1527 0c-21,0 -38,17 -38,37l0 211zm666 -94l-86 0c-17,0 -30,-14 -30,-30 0,-16 13,-29 30,-29l86 0c16,0 30,13 30,29 0,16 -14,30 -30,30zm773 0l-654 0c-16,0 -29,-14 -29,-30 0,-16 13,-29 29,-29l654 0c16,0 30,13 30,29 0,16 -14,30 -30,30zm-981 0l-86 0c-17,0 -30,-14 -30,-30 0,-16 13,-29 30,-29l86 0c16,0 30,13 30,29 0,16 -14,30 -30,30zm-208 0l-87 0c-16,0 -29,-14 -29,-30 0,-16 13,-29 29,-29l87 0c16,0 30,13 30,29 0,16 -14,30 -30,30zm-250 153l0 1250c0,21 17,38 38,38l1527 0c21,0 37,-17 37,-38l0 -1250 -1602 0zm1293 1127l-983 0c-16,0 -29,-13 -29,-29l0 -738c0,-7 2,-13 7,-19l136 -169c6,-7 14,-11 23,-11l443 0 1 0 265 0c9,0 17,4 23,11l136 170c1,1 2,2 3,3l1 2 0 1 1 1 0 2 1 1 0 2 0 1 1 2 0 0c0,1 0,3 0,4l0 737c0,16 -13,29 -29,29zm-953 -737l0 679 923 0 0 -679 -342 0 0 303c0,13 -9,25 -21,29 -3,0 -6,1 -9,1 -10,0 -19,-5 -24,-13l-65 -94 -67 94c-7,11 -20,15 -32,11 -13,-3 -21,-15 -21,-28l0 -303 -342 0zm758 440l-594 0c-16,0 -29,-13 -29,-29 0,-16 13,-29 29,-29l594 0c16,0 30,13 30,29 0,16 -14,29 -30,29zm0 95l-594 0c-16,0 -29,-13 -29,-29 0,-17 13,-30 29,-30l594 0c16,0 30,13 30,30 0,16 -14,29 -30,29zm0 95l-594 0c-16,0 -29,-13 -29,-30 0,-16 13,-29 29,-29l594 0c16,0 30,13 30,29 0,17 -14,30 -30,30zm-177 -689l310 0 -89 -112 -221 0 0 112zm-550 0l311 0 0 -112 -221 0 -90 112zm370 -112l0 382 38 -54c5,-8 14,-12 24,-12 10,0 19,5 24,13l35 50 0 -379 -121 0z"/>
   <path class="fil0" d="M2097 2186l-1527 0c-52,0 -93,-41 -93,-93l0 -1520c0,-51 41,-92 93,-92l1527 0c51,0 93,41 93,92l0 1520c0,52 -42,93 -93,93zm-1568 -1398l1609 0 0 -215c0,-22 -18,-40 -41,-40l-1527 0c-23,0 -41,18 -41,40l0 215zm669 -102l-86 0c-15,0 -27,-11 -27,-26 0,-14 12,-26 27,-26l86 0c15,0 26,12 26,26 0,15 -11,26 -26,26zm773 0l-654 0c-14,0 -26,-11 -26,-26 0,-14 12,-26 26,-26l654 0c15,0 26,12 26,26 0,15 -11,26 -26,26zm-981 0l-86 0c-15,0 -27,-11 -27,-26 0,-14 12,-26 27,-26l86 0c15,0 26,12 26,26 0,15 -11,26 -26,26zm-208 0l-87 0c-14,0 -26,-11 -26,-26 0,-14 12,-26 26,-26l87 0c15,0 26,12 26,26 0,15 -11,26 -26,26zm-253 154l0 1253c0,23 18,41 41,41l1527 0c23,0 41,-18 41,-41l0 -1253 -1609 0zm1296 1127l-983 0c-14,0 -26,-12 -26,-26l0 -738c0,-6 2,-12 6,-17l137 -169c5,-6 12,-10 20,-10l444 0 0 0 265 0c8,0 15,4 20,10l137 170c0,1 1,2 2,3l1 1 0 1 1 2 0 1 1 1 0 2 0 1 0 1 0 1c1,1 1,2 1,3l0 737c0,14 -12,26 -26,26zm-957 -738l0 686 930 0 0 -686 -349 0 0 307c0,12 -7,22 -18,25 -3,1 -5,1 -8,1 -8,0 -16,-4 -21,-11l-67 -98 -70 98c-7,10 -19,14 -29,10 -11,-3 -19,-13 -19,-25l0 -307 -349 0zm762 441l-594 0c-14,0 -26,-12 -26,-26 0,-14 12,-26 26,-26l594 0c15,0 26,12 26,26 0,14 -11,26 -26,26zm0 95l-594 0c-14,0 -26,-12 -26,-26 0,-15 12,-26 26,-26l594 0c15,0 26,11 26,26 0,14 -11,26 -26,26zm0 94l-594 0c-14,0 -26,-11 -26,-26 0,-14 12,-26 26,-26l594 0c15,0 26,12 26,26 0,15 -11,26 -26,26zm-181 -682l321 0 -95 -118 -226 0 0 118zm-552 0l320 0 0 -118 -226 0 -94 118zm373 -118l0 395 44 -62c5,-7 12,-11 21,-11 9,0 17,4 21,11l41 60 0 -393 -127 0z"/>
  </g>
  <path class="fil2" d="M1198 683l-86 0c-13,0 -23,-10 -23,-23 0,-12 10,-22 23,-22l86 0c13,0 23,10 23,22 0,13 -10,23 -23,23zm627 1281l-983 0c-12,0 -23,-11 -23,-23l0 -738c0,-5 2,-10 6,-14l136 -170c5,-6 11,-9 18,-9l265 0 0 0 179 0 0 0 265 0c7,0 13,3 17,9l137 170c1,1 1,1 2,2l0 0 0 1 0 0 0 0 0 0 0 0 1 1 0 0 0 0 0 0 0 0 0 1 0 0 0 0 0 0 0 0 1 1 0 0 0 0 0 0 0 1 0 0 0 0 0 0 0 0 0 1 0 0 0 0 1 0 0 0 0 1 0 0 0 0 0 1 0 0 0 0 0 0 0 1 0 0 0 0 0 0 0 1 0 0c0,1 0,2 0,3l0 737c0,12 -10,23 -22,23zm-960 -738l0 692 937 0 0 -692 -356 0 0 310c0,10 -7,19 -16,22 -2,1 -5,1 -7,1 -7,0 -14,-3 -19,-10l-69 -102 -73 103c-6,8 -16,11 -25,8 -10,-3 -16,-12 -16,-22l0 -310 -356 0zm581 -46l331 0 -100 -124 -231 0 0 124zm-556 0l331 0 0 -124 -231 0 -100 124zm376 -124l0 147 0 262 50 -71c5,-6 12,-10 19,-10 0,0 0,0 0,0 8,0 14,4 19,10l46 69 0 -260 0 -147 -134 0zm831 1127l-1527 0c-50,0 -90,-40 -90,-90l0 -1279 0 -241c0,-49 40,-89 90,-89l1527 0c49,0 90,40 90,89l0 241 0 1279c0,50 -41,90 -90,90zm-1527 -1654c-25,0 -44,20 -44,44l0 218 1615 0 0 -218c0,-24 -20,-44 -44,-44l-1527 0zm-44 308l0 1256c0,25 19,44 44,44l1527 0c24,0 44,-19 44,-44l0 -1256 -1615 0zm1445 -154l-654 0c-12,0 -22,-10 -22,-23 0,-12 10,-22 22,-22l654 0c13,0 23,10 23,22 0,13 -10,23 -23,23zm-981 0l-86 0c-13,0 -23,-10 -23,-23 0,-12 10,-22 23,-22l86 0c13,0 23,10 23,22 0,13 -10,23 -23,23zm640 984l-594 0c-12,0 -22,-10 -22,-23 0,-13 10,-23 22,-23l594 0c13,0 23,10 23,23 0,13 -10,23 -23,23zm0 94l-594 0c-12,0 -22,-10 -22,-22 0,-13 10,-23 22,-23l594 0c13,0 23,10 23,23 0,12 -10,22 -23,22zm0 95l-594 0c-12,0 -22,-10 -22,-23 0,-12 10,-22 22,-22l594 0c13,0 23,10 23,22 0,13 -10,23 -23,23zm-848 -1173l-87 0c-12,0 -22,-10 -22,-23 0,-12 10,-22 22,-22l87 0c13,0 23,10 23,22 0,13 -10,23 -23,23z"/>
  <path class="fil3" d="M1446 1226l0 310c0,10 -7,19 -16,22 -2,1 -5,1 -7,1 -7,0 -14,-3 -19,-10l-69 -102 -73 103c-6,8 -16,11 -25,8 -10,-3 -16,-12 -16,-22l0 -310 -356 0 0 692 937 0 0 -692 -356 0zm-410 395l594 0c13,0 23,10 23,23 0,13 -10,23 -23,23l-594 0c-12,0 -22,-10 -22,-23 0,-13 10,-23 22,-23zm0 95l594 0c13,0 23,10 23,23 0,12 -10,22 -23,22l-594 0c-12,0 -22,-10 -22,-22 0,-13 10,-23 22,-23zm0 95l594 0c13,0 23,10 23,22 0,13 -10,23 -23,23l-594 0c-12,0 -22,-10 -22,-23 0,-12 10,-22 22,-22z"/>
  <path class="fil4" d="M1400 1463l0 -260 0 -147 -134 0 0 147 0 262 50 -71c5,-6 12,-10 19,-10l0 0c8,0 14,4 19,10l46 69z"/>
  <polygon class="fil3" points="1446,1180 1777,1180 1677,1056 1446,1056 "/>
  <polygon class="fil3" points="1221,1180 1221,1056 990,1056 890,1180 "/>
  <path class="fil5" d="M1845 1193l0 0zm1 2l0 0zm-867 -185l265 0 0 0 179 0 0 0 265 0c7,0 13,3 17,9l137 170c1,1 1,1 2,2l0 0 0 1 0 0 0 0 0 0 0 0 1 1 0 0 0 0 0 0 0 1 0 0 0 0 0 0 0 0 1 1 0 0 0 0 0 1 0 0 0 0 0 0 0 0 0 1 0 0 0 0 1 0 0 0 0 1 0 0 0 0 0 1 0 0 0 0 0 0 0 1 0 0 0 0 0 0 0 1 0 0c0,1 0,2 0,3l0 737c0,12 -10,23 -22,23l-983 0c-12,0 -23,-11 -23,-23l0 -738c0,-5 2,-10 6,-14l136 -170c5,-6 11,-9 18,-9zm1162 -173l-1615 0 0 1256c0,25 19,44 44,44l1527 0c24,0 44,-19 44,-44l0 -1256z"/>
  <path class="fil4" d="M526 791l1615 0 0 -218c0,-24 -20,-44 -44,-44l-1527 0c-25,0 -44,20 -44,44l0 218zm672 -108l-86 0c-13,0 -23,-10 -23,-23 0,-12 10,-22 23,-22l86 0c13,0 23,10 23,22 0,13 -10,23 -23,23zm773 0l-654 0c-12,0 -22,-10 -22,-23 0,-12 10,-22 22,-22l654 0c13,0 23,10 23,22 0,13 -10,23 -23,23zm-981 0l-86 0c-13,0 -23,-10 -23,-23 0,-12 10,-22 23,-22l86 0c13,0 23,10 23,22 0,13 -10,23 -23,23zm-208 0l-87 0c-12,0 -22,-10 -22,-23 0,-12 10,-22 22,-22l87 0c13,0 23,10 23,22 0,13 -10,23 -23,23z"/>
 </g>
</svg>
