<?xml version="1.0" encoding="utf-8"?>
<!-- Generator: Adobe Illustrator 16.0.0, SVG Export Plug-In . SVG Version: 6.00 Build 0)  -->
<!DOCTYPE svg PUBLIC "-//W3C//DTD SVG 1.1//EN" "http://www.w3.org/Graphics/SVG/1.1/DTD/svg11.dtd">
<svg version="1.1" id="Layer_1" xmlns="http://www.w3.org/2000/svg" xmlns:xlink="http://www.w3.org/1999/xlink" x="0px" y="0px"
	 width="212.795px" height="220.59px" viewBox="0 0 212.795 220.59" enable-background="new 0 0 212.795 220.59"
	 xml:space="preserve">
<path fill="#10003B" d="M30.125,215.59c-1.104,0-2-0.896-2-2V31.117c0-1.104,0.896-2,2-2c1.104,0,2,0.896,2,2V213.59
	C32.125,214.694,31.229,215.59,30.125,215.59"/>
<path fill="#10003B" d="M10.926,58.456c0.93,0.594,2.168,0.316,2.762-0.617L30.125,32.03l16.438,25.809
	c0.594,0.934,1.832,1.211,2.762,0.617s1.199-1.84,0.613-2.766L31.813,27.233c-0.366-0.574-1.004-0.925-1.688-0.925
	c-0.683,0-1.32,0.351-1.688,0.925L10.313,55.69C10.102,56.026,10,56.397,10,56.766C10,57.425,10.328,58.073,10.926,58.456"/>
<path fill="#10003B" d="M194.474,197.466H12.001c-1.104,0-2-0.896-2-2c0-1.104,0.896-2,2-2h182.473c1.104,0,2,0.896,2,2
	C196.474,196.57,195.577,197.466,194.474,197.466"/>
<path fill="#10003B" d="M167.135,176.267c-0.594,0.93-0.315,2.168,0.617,2.762l25.809,16.438l-25.809,16.438
	c-0.933,0.594-1.211,1.832-0.617,2.762s1.84,1.199,2.767,0.613l28.456-18.125c0.574-0.366,0.926-1.004,0.926-1.688
	c0-0.683-0.352-1.32-0.926-1.688l-28.456-18.125c-0.337-0.211-0.707-0.313-1.075-0.313
	C168.166,175.341,167.518,175.669,167.135,176.267"/>
<rect x="48.249" y="100.918" fill="#FE7058" width="28.093" height="76.424"/>
<path fill="#10003B" d="M76.342,179.342H48.249c-1.104,0-2-0.896-2-2v-76.424c0-1.104,0.896-2,2-2h28.093c1.104,0,2,0.896,2,2
	v76.424C78.342,178.446,77.446,179.342,76.342,179.342 M50.249,175.342h24.093v-72.424H50.249V175.342z"/>
<rect x="94.466" y="73.733" fill="#52C0F5" width="28.092" height="103.608"/>
<path fill="#10003B" d="M122.558,179.342H94.466c-1.104,0-2-0.896-2-2V73.732c0-1.104,0.896-2,2-2h28.092c1.104,0,2,0.896,2,2
	v103.609C124.558,178.446,123.662,179.342,122.558,179.342 M96.466,175.342h24.092V75.733H96.466V175.342z"/>
<rect x="140.682" y="46.546" fill="#4BD6C1" width="28.094" height="130.796"/>
<path fill="#10003B" d="M168.775,179.342h-28.094c-1.104,0-2-0.896-2-2V46.546c0-1.104,0.896-2,2-2h28.094c1.104,0,2,0.896,2,2
	v130.796C170.775,178.446,169.879,179.342,168.775,179.342 M142.682,175.342h24.094V48.546h-24.094V175.342z"/>
</svg>
