<?xml version="1.0" standalone="no"?>
<!DOCTYPE svg PUBLIC "-//W3C//DTD SVG 20010904//EN"
 "http://www.w3.org/TR/2001/REC-SVG-20010904/DTD/svg10.dtd">
<svg version="1.0" xmlns="http://www.w3.org/2000/svg"
 width="204.000000pt" height="188.000000pt" viewBox="0 0 204.000000 188.000000"
 preserveAspectRatio="xMidYMid meet">

<g transform="translate(0.000000,188.000000) scale(0.100000,-0.100000)"
fill="#000000" stroke="none">
<path d="M773 1749 c-24 -36 -28 -53 -28 -110 0 -59 4 -73 30 -111 21 -28 50
-53 89 -73 109 -55 265 -35 321 43 22 30 26 95 7 128 -9 15 -10 11 -5 -22 3
-27 0 -51 -11 -72 -21 -40 -36 -41 -36 -3 0 16 -9 39 -20 52 l-19 24 11 -32
c15 -39 3 -79 -29 -101 -22 -14 -23 -14 -17 17 4 20 3 31 -5 31 -6 0 -11 -6
-11 -13 0 -27 -40 -52 -83 -51 -51 2 -97 47 -97 96 0 40 -11 29 -19 -19 l-6
-37 -18 28 c-29 43 -32 114 -8 161 l21 40 -30 -33 c-17 -18 -30 -44 -31 -60
l0 -27 -10 24 c-12 30 -4 75 22 120 29 49 15 50 -18 0z"/>
<path d="M760 1490 c0 -43 27 -87 61 -99 l32 -11 -20 -23 c-64 -69 -74 -161
-27 -246 15 -29 41 -63 56 -77 38 -32 78 -124 89 -204 4 -36 11 -73 15 -83 4
-11 1 -17 -9 -17 -14 0 -27 57 -27 120 0 46 -62 181 -77 166 -2 -2 9 -39 25
-82 16 -43 32 -107 35 -141 l7 -63 -43 -1 c-23 0 -62 -4 -87 -8 -27 -5 92 -8
290 -8 262 0 320 2 265 10 -38 5 -72 11 -74 13 -1 1 4 25 13 52 16 46 16 51
-4 93 -26 57 -25 115 2 175 24 54 27 122 7 169 -10 26 -13 27 -16 10 -13 -68
-57 -95 -151 -95 -148 0 -246 78 -202 160 5 10 33 26 62 35 50 17 98 49 98 67
0 4 -35 8 -78 8 -96 0 -159 20 -206 66 -32 31 -36 33 -36 14z m362 -550 c22
-16 47 -30 54 -30 7 0 19 -10 25 -22 6 -13 22 -35 35 -49 21 -22 23 -31 16
-65 -7 -37 -10 -39 -50 -42 l-43 -3 16 38 c9 21 22 44 29 52 20 19 -10 67 -48
81 -16 6 -38 18 -48 27 -33 30 -22 -21 16 -70 32 -42 34 -47 24 -86 l-10 -41
-73 0 c-67 0 -73 2 -79 23 -11 40 -6 109 11 164 16 50 18 53 50 53 21 0 48
-11 75 -30z"/>
<path d="M1157 533 c-4 -3 -7 -14 -7 -23 0 -15 -7 -17 -43 -13 -78 9 -127 -60
-88 -124 36 -58 137 -50 161 13 16 40 13 154 -3 154 -8 0 -17 -3 -20 -7z m-29
-79 c24 -17 29 -53 10 -72 -16 -16 -70 -16 -86 0 -27 27 2 88 43 88 6 0 21 -7
33 -16z"/>
<path d="M473 495 c-41 -18 -53 -42 -53 -109 0 -43 3 -56 15 -56 11 0 15 11
15 40 l0 40 65 0 c51 0 65 3 65 15 0 12 -13 15 -61 15 -54 0 -60 2 -49 15 8
10 31 15 66 15 61 0 77 23 23 34 -42 8 -49 7 -86 -9z"/>
<path d="M603 485 c-8 -22 5 -96 22 -122 30 -45 121 -37 144 13 17 38 15 124
-4 124 -11 0 -15 -12 -15 -48 0 -55 -20 -82 -61 -82 -37 0 -49 18 -49 77 0 41
-3 53 -15 53 -9 0 -18 -7 -22 -15z"/>
<path d="M815 469 c-22 -27 -25 -40 -23 -83 2 -37 7 -51 18 -51 11 0 16 14 18
50 4 68 22 85 89 85 40 0 53 4 53 15 0 12 -14 15 -64 15 -60 0 -66 -2 -91 -31z"/>
<path d="M1225 475 c-54 -53 -16 -145 58 -145 37 0 87 32 87 56 0 20 -17 18
-47 -6 -32 -25 -45 -25 -73 -2 -18 15 -22 25 -16 46 7 29 45 50 71 39 14 -5
13 -9 -5 -28 -32 -34 -6 -42 35 -10 41 31 43 39 13 59 -35 25 -94 20 -123 -9z"/>
<path d="M1409 471 c-81 -82 32 -189 121 -115 42 36 25 55 -23 25 -47 -29 -87
-16 -87 29 0 36 39 67 65 53 15 -9 15 -11 1 -22 -19 -16 -21 -41 -3 -41 7 0
26 14 43 31 l29 31 -24 19 c-36 29 -87 25 -122 -10z"/>
<path d="M1595 475 c-21 -20 -25 -34 -25 -85 0 -47 3 -60 15 -60 11 0 15 13
15 54 0 67 20 86 92 86 36 0 48 4 48 15 0 12 -13 15 -60 15 -51 0 -65 -4 -85
-25z"/>
<path d="M937 243 c-4 -3 -7 -18 -7 -31 0 -31 7 -26 14 11 5 28 4 31 -7 20z"/>
<path d="M420 215 c0 -20 5 -25 26 -25 32 0 30 29 -3 41 -20 7 -23 5 -23 -16z
m40 -5 c0 -5 -4 -10 -10 -10 -5 0 -10 5 -10 10 0 6 5 10 10 10 6 0 10 -4 10
-10z"/>
<path d="M610 217 c0 -15 4 -27 8 -27 10 0 9 36 -1 46 -4 4 -7 -5 -7 -19z"/>
<path d="M1120 214 c0 -21 4 -25 23 -22 12 2 22 9 22 17 0 7 -10 17 -22 22
-20 7 -23 5 -23 -17z m35 -4 c3 -5 -1 -10 -10 -10 -9 0 -13 5 -10 10 3 6 8 10
10 10 2 0 7 -4 10 -10z"/>
<path d="M1310 217 c0 -15 4 -27 8 -27 10 0 9 36 -1 46 -4 4 -7 -5 -7 -19z"/>
<path d="M497 223 c-15 -14 -6 -33 15 -33 21 0 21 0 2 16 -16 13 -16 15 -1 10
9 -3 17 -1 17 4 0 11 -23 13 -33 3z"/>
<path d="M555 220 c-8 -13 5 -13 25 0 13 8 13 10 -2 10 -9 0 -20 -4 -23 -10z"/>
<path d="M695 220 c-4 -7 -3 -16 3 -22 14 -14 45 -2 40 15 -6 16 -34 21 -43 7z
m30 -10 c3 -5 -1 -10 -9 -10 -9 0 -16 5 -16 10 0 6 4 10 9 10 6 0 13 -4 16
-10z"/>
<path d="M761 208 c1 -17 2 -19 6 -5 2 9 8 17 13 17 5 0 11 -8 13 -17 4 -14 5
-12 6 5 1 16 -5 22 -19 22 -14 0 -20 -6 -19 -22z"/>
<path d="M830 210 c0 -12 7 -20 16 -20 14 0 15 2 3 17 -12 15 -12 16 4 10 11
-4 16 -3 12 3 -11 18 -35 11 -35 -10z"/>
<path d="M977 223 c-14 -13 -7 -33 11 -33 24 0 32 8 25 26 -5 15 -25 19 -36 7z
m23 -13 c0 -5 -4 -10 -10 -10 -5 0 -10 5 -10 10 0 6 5 10 10 10 6 0 10 -4 10
-10z"/>
<path d="M1040 210 c0 -11 2 -20 4 -20 2 0 6 9 9 20 3 11 1 20 -4 20 -5 0 -9
-9 -9 -20z"/>
<path d="M1197 223 c-13 -12 -7 -33 9 -33 14 0 15 2 3 17 -12 15 -12 16 4 10
11 -4 16 -3 12 3 -7 12 -19 13 -28 3z"/>
<path d="M1257 224 c-3 -3 -3 -12 0 -20 6 -16 33 -19 33 -4 0 6 -5 10 -11 10
-5 0 -7 5 -4 10 7 11 -8 14 -18 4z"/>
<path d="M1390 200 c0 -30 0 -30 25 -14 30 19 28 38 -3 42 -19 3 -22 -1 -22
-28z m40 10 c0 -5 -7 -10 -16 -10 -8 0 -12 5 -9 10 3 6 10 10 16 10 5 0 9 -4
9 -10z"/>
<path d="M1467 223 c-13 -12 -7 -33 9 -33 14 0 15 2 3 17 -12 15 -12 16 4 10
11 -4 16 -3 12 3 -7 12 -19 13 -28 3z"/>
<path d="M1530 210 c0 -11 2 -20 4 -20 2 0 6 9 9 20 3 11 1 20 -4 20 -5 0 -9
-9 -9 -20z"/>
<path d="M1574 214 c3 -9 6 -18 6 -20 0 -2 8 -4 18 -4 16 1 16 1 -1 14 -14 11
-15 15 -5 19 8 3 6 6 -6 6 -13 1 -16 -4 -12 -15z"/>
<path d="M1630 211 c0 -15 6 -21 21 -21 25 0 22 33 -4 38 -12 2 -17 -3 -17
-17z m30 -1 c0 -5 -4 -10 -10 -10 -5 0 -10 5 -10 10 0 6 5 10 10 10 6 0 10 -4
10 -10z"/>
<path d="M1701 208 c1 -17 3 -18 6 -5 2 9 8 17 13 17 5 0 11 -8 14 -17 4 -14
4 -14 3 2 -3 30 -37 33 -36 3z"/>
<path d="M565 200 c-3 -5 1 -10 9 -10 9 0 16 5 16 10 0 6 -4 10 -9 10 -6 0
-13 -4 -16 -10z"/>
</g>
</svg>
