<?xml version="1.0" standalone="no"?>
<!DOCTYPE svg PUBLIC "-//W3C//DTD SVG 20010904//EN"
 "http://www.w3.org/TR/2001/REC-SVG-20010904/DTD/svg10.dtd">
<svg version="1.0" xmlns="http://www.w3.org/2000/svg"
 width="258.000000pt" height="77.000000pt" viewBox="0 0 258.000000 77.000000"
 preserveAspectRatio="xMidYMid meet">

<g transform="translate(0.000000,77.000000) scale(0.100000,-0.100000)"
fill="#000000" stroke="none">
<path d="M283 554 c-5 -13 -8 -13 -15 -2 -6 8 -7 3 -2 -17 4 -16 6 -40 6 -52
-1 -12 7 -28 18 -36 18 -13 19 -16 5 -27 -24 -20 -18 -74 13 -111 15 -18 21
-29 13 -24 -11 6 -13 4 -8 -9 4 -10 7 -20 7 -22 0 -3 4 -3 8 0 4 2 7 -12 5
-32 -2 -36 -2 -36 7 -7 l9 30 -2 -30 c-2 -26 -7 -31 -37 -36 -19 -4 21 -6 90
-6 69 0 116 2 105 4 -16 3 -22 13 -23 38 -4 54 -3 76 4 125 l6 45 -21 -22
c-24 -25 -54 -29 -98 -12 -27 10 -43 25 -43 42 0 4 16 17 36 29 26 15 32 23
22 29 -9 6 -7 9 8 9 21 0 54 28 54 46 0 5 -5 2 -10 -6 -8 -13 -10 -13 -10 -1
0 12 -3 11 -13 -2 -6 -10 -29 -20 -49 -24 -33 -5 -39 -3 -47 18 -5 13 -10 18
-10 11 -1 -7 -6 -10 -12 -6 -6 3 -9 22 -7 40 4 37 1 43 -9 18z m31 -93 c-2 -3
-12 3 -22 13 -16 17 -16 18 5 5 12 -7 20 -15 17 -18z m101 -197 c13 -5 14 -8
3 -15 -10 -6 -10 -11 0 -21 6 -6 12 -20 12 -30 0 -14 -8 -18 -35 -18 -30 0
-35 3 -35 23 0 59 16 76 55 61z m55 -65 c0 -11 -7 -19 -16 -19 -11 0 -14 5
-10 16 3 9 6 20 6 25 0 6 5 7 10 4 6 -3 10 -15 10 -26z"/>
<path d="M1777 483 c-4 -3 -7 -16 -7 -28 0 -20 -4 -21 -60 -17 -57 4 -61 3
-90 -28 -84 -90 27 -224 138 -166 48 25 62 62 62 161 0 76 -2 85 -18 85 -10 0
-22 -3 -25 -7z m-29 -99 c48 -33 17 -104 -46 -104 -68 0 -96 60 -46 99 32 25
61 27 92 5z"/>
<path d="M913 430 c-44 -27 -53 -48 -53 -130 0 -63 2 -71 18 -68 12 2 18 15
20 46 l3 42 67 0 c74 0 98 10 89 34 -5 13 -22 16 -79 16 -66 1 -71 2 -54 15
12 9 42 15 76 15 31 0 61 5 68 12 38 38 -96 55 -155 18z"/>
<path d="M1092 365 c3 -66 7 -78 31 -102 23 -23 36 -28 78 -28 45 0 54 4 80
33 26 29 29 39 29 102 0 63 -2 70 -20 70 -18 0 -20 -7 -20 -58 0 -76 -18 -102
-70 -102 -52 0 -70 26 -70 102 0 52 -2 58 -21 58 -20 0 -21 -4 -17 -75z"/>
<path d="M1358 411 c-32 -28 -33 -32 -33 -103 0 -66 2 -73 20 -73 18 0 20 8
23 67 4 82 13 91 101 98 52 4 66 9 69 23 3 15 -6 17 -72 17 -69 0 -78 -2 -108
-29z"/>
<path d="M1861 409 c-40 -39 -43 -103 -8 -144 44 -51 149 -42 186 17 22 35 -2
43 -45 14 -46 -31 -77 -33 -104 -6 -27 27 -25 56 5 85 25 25 50 31 73 17 9 -7
8 -13 -8 -27 -11 -10 -20 -24 -20 -32 0 -23 29 -14 68 22 l37 35 -28 25 c-22
19 -39 25 -77 25 -41 0 -53 -5 -79 -31z"/>
<path d="M2104 422 c-49 -39 -59 -113 -21 -157 33 -39 103 -46 151 -15 20 12
36 26 36 31 0 22 19 6 22 -18 2 -17 10 -29 21 -31 15 -3 17 5 17 62 0 85 14
99 108 106 53 4 67 9 70 23 3 15 -6 17 -73 17 -42 0 -85 -5 -96 -10 -25 -14
-49 -62 -49 -101 0 -26 -2 -29 -14 -19 -12 9 -22 6 -53 -14 -45 -31 -76 -33
-103 -6 -27 27 -25 56 5 85 25 25 50 31 73 17 9 -7 8 -13 -8 -27 -11 -10 -20
-24 -20 -32 0 -25 36 -13 71 23 l34 35 -28 25 c-35 30 -110 33 -143 6z"/>
</g>
</svg>
